<?xml version="1.0" encoding="UTF-8" standalone="no"?>
<!DOCTYPE svg PUBLIC "-//W3C//DTD SVG 1.1//EN" "http://www.w3.org/Graphics/SVG/1.1/DTD/svg11.dtd">
<svg width="100%" height="100%" viewBox="0 0 1080 1080" version="1.1" xmlns="http://www.w3.org/2000/svg" xmlns:xlink="http://www.w3.org/1999/xlink" xml:space="preserve" xmlns:serif="http://www.serif.com/" style="fill-rule:evenodd;clip-rule:evenodd;stroke-linejoin:round;stroke-miterlimit:2;">
    <g id="Layer-28" serif:id="Layer 28" transform="matrix(-1.9718,0,0,1.9718,1275.56,-97.9592)">
        <g transform="matrix(1,0,0,1,282.012,579.936)">
            <path d="M0,-452.617C0,-452.617 -51.348,-449.201 -82.916,-437.026C-114.485,-424.851 -163.931,-402.791 -171.918,-334.709C-179.906,-266.626 -179.906,-193.979 -162.41,-148.717C-144.914,-103.455 -121.332,-50.967 -68.844,-28.147C-16.355,-5.326 1.901,-1.522 80.634,-0.761C159.366,0 187.513,-5.326 221.363,-8.748C255.215,-12.172 324.818,-23.962 341.554,-65.421C358.29,-106.879 372.362,-173.06 327.481,-204.248C282.6,-235.437 197.401,-258.258 197.401,-258.258C197.401,-258.258 151.76,-333.568 145.294,-354.106C138.827,-374.645 122.372,-447.201 56.672,-448.814L0,-452.617Z" style="fill:rgb(254,217,183);fill-rule:nonzero;"/>
        </g>
        <g transform="matrix(1,0,0,1,182.958,513.691)">
            <path d="M0,-364.095C0,-364.095 -39.714,-241.703 -6.247,-155.642C-6.243,-145.07 -35.691,-132.491 -27.638,-132.994C-19.585,-133.497 0,-140.855 0,-140.855C0,-140.855 32.616,-152.229 38.292,-148.093C43.968,-143.956 73.522,-107.726 73.522,-107.726L116.462,-70.256C116.462,-70.256 119.031,-59.514 123.454,-58.508C127.877,-57.501 173.173,-53.678 198.337,-55.339C223.501,-56.998 213.938,-33.086 213.938,-33.086L184.868,-1.134C184.868,-1.134 182.984,18.998 192.17,20.508C201.356,22.018 205.383,19.501 218.972,-0.63C232.561,-20.762 263.261,-50.959 263.261,-50.959L280.372,-51.462L331.204,-52.469L360.395,-58.005L206.615,-285.49C206.615,-285.49 209.356,-289.15 206.615,-298.644C203.873,-308.137 172.669,-361.486 172.669,-361.486L160.909,-383.953C160.909,-383.953 123.116,-384.758 113.022,-385.435C102.929,-386.113 62.86,-382.354 54.602,-380.77C46.344,-379.187 7.21,-371.695 0,-364.095" style="fill:rgb(210,170,133);fill-rule:nonzero;"/>
        </g>
        <g transform="matrix(0.713934,0.700213,0.700213,-0.713934,259.272,89.4018)">
            <path d="M15.06,-3.936C15.06,-3.936 -1.227,0.588 -2.097,10.944C-2.966,21.301 1.636,29.017 15.06,29.372C28.483,29.727 19.957,0.866 19.957,0.866L15.06,-3.936Z" style="fill:rgb(89,49,57);fill-rule:nonzero;"/>
        </g>
        <g transform="matrix(1,0,0,1,284.874,206.109)">
            <path d="M0,-68.139C0,-68.139 -7.088,-54.42 -11.89,-51.219C-16.692,-48.017 -48.704,-30.182 -48.704,-30.182L-14.405,0L63.251,-2.515L44.587,-44.359L0,-68.139Z" style="fill:rgb(201,97,86);fill-rule:nonzero;"/>
        </g>
        <g transform="matrix(1,0,0,1,235.028,437.12)">
            <path d="M0,-265.081C0,-265.081 7.317,-265.996 13.262,-260.508C19.207,-255.02 27.667,-242.673 43.901,-241.072C60.136,-239.472 86.889,-239.929 91.004,-247.932C95.12,-255.935 95.607,-269.911 95.607,-269.911C95.607,-269.911 106.61,-266.91 113.098,-263.252C119.586,-259.593 138.793,-239.929 147.711,-224.609C156.628,-209.289 164.402,-195.799 164.402,-195.799L141.778,-80.27L57.121,4.83C57.121,4.83 36.182,-2.324 28.687,-15.609C21.194,-28.893 17.787,-29.915 16.425,-38.772C15.062,-47.628 9.612,-110.645 -4.013,-126.996L-8.101,-106.898C-8.101,-106.898 -13.21,-82.713 -8.101,-67.385C-8.101,-67.385 -49.658,-48.309 -58.174,-63.979C-59.537,-84.757 -50.68,-184.223 -50.68,-184.223C-50.68,-184.223 -51.851,-237.958 0,-265.081" style="fill:rgb(253,252,220);fill-rule:nonzero;"/>
        </g>
        <g transform="matrix(0.812855,-0.582466,-0.582466,-0.812855,320.11,173.47)">
            <path d="M-12.98,-1.795C-12.98,-1.795 -24.459,4.848 -24.77,13.439C-25.081,22.028 -19.031,38.046 -12.98,40.494C-6.929,42.943 -1.215,2.631 -1.215,2.631C-1.215,2.631 -3.604,-5.122 -12.98,-1.795" style="fill:rgb(173,65,63);fill-rule:nonzero;"/>
        </g>
        <g transform="matrix(1,0,0,1,342.495,182.329)">
            <path d="M0,-75.228C0,-75.228 1.83,-58.079 1.372,-52.591C0.915,-47.103 -2.286,-41.158 -2.286,-39.787C-2.286,-38.415 0.915,-32.241 -3.887,-25.61C-8.688,-18.979 -15.091,-11.205 -16.463,-8.918C-17.835,-6.631 -25.38,0 -33.841,-6.174C-42.301,-12.348 -58.993,-29.04 -59.679,-35.213C-60.365,-41.387 -69.511,-52.82 -69.511,-52.82L-64.649,-73.17L0,-75.228Z" style="fill:rgb(228,123,120);fill-rule:nonzero;"/>
        </g>
        <g transform="matrix(1,0,0,1,281.113,77.3768)">
            <path d="M0,67.229C0,67.229 -21.848,45.347 -14.989,23.131C-8.129,0.914 19.538,0 25.94,1.829C32.343,3.658 56.809,11.89 62.297,18.063C67.784,24.237 68.699,32.697 63.897,35.441C59.096,38.185 40.117,44.358 18.167,34.984C18.167,34.984 9.02,48.246 10.621,61.05L6.962,58.535C6.962,58.535 1.932,42.529 4.218,38.414C4.218,38.414 -13.845,40.929 1.017,63.565L0,67.229Z" style="fill:rgb(93,52,60);fill-rule:nonzero;"/>
        </g>
        <g transform="matrix(1,0,0,1,392.69,530.343)">
            <path d="M0,-94.347C0,-94.347 -18.399,-68.509 -26.621,-60.288C-34.842,-52.067 -50.893,-30.534 -49.327,-17.224C-47.761,-3.913 -44.238,2.35 -31.319,-7.828C-18.399,-18.007 23.099,-55.199 23.099,-55.199L34.451,-96.697L0,-94.347Z" style="fill:rgb(68,24,37);fill-rule:nonzero;"/>
        </g>
        <g transform="matrix(0.972981,0.230885,0.230885,-0.972981,486.335,437.563)">
            <path d="M4.442,-10.063L44.47,-10.063C44.47,-10.063 73.949,-8.495 80.111,11.284C86.272,31.064 82.641,52.086 82.641,52.086L4.442,-10.063Z" style="fill:rgb(70,26,39);fill-rule:nonzero;"/>
        </g>
        <g transform="matrix(1,0,0,1,367.826,441.95)">
            <path d="M0,-179.58C0,-179.58 -106.633,-158.253 -128.273,-161.076L-136.812,-131.826C-136.812,-131.826 -130.491,-124.46 -126.822,-107.897C-123.153,-91.333 -120.079,-74.05 -118.227,-58.825C-116.374,-43.601 -113.421,-35 -110.863,-31.179C-108.306,-27.358 -103.528,-17.902 -99.196,-14.117C-94.863,-10.331 -78.698,0 -78.698,0L-40.815,-99.711L0,-179.58Z" style="fill:rgb(232,230,167);fill-rule:nonzero;"/>
        </g>
        <g transform="matrix(1,0,0,1,231.014,252.359)">
            <path d="M0,57.765C0,57.765 10.641,10.173 10.641,-4.711C10.641,-19.594 12.794,28.505 12.011,39.471C11.228,50.438 14.088,76.973 14.088,76.973L8.795,77.359L0,57.765Z" style="fill:rgb(178,175,109);fill-rule:nonzero;"/>
        </g>
        <g transform="matrix(1,0,0,1,375.128,230.909)">
            <path d="M0,8.496C0,8.496 -10.196,-4.249 -9.913,-15.861C-9.913,-15.861 -13.278,19.601 -11.029,21.979C-8.78,24.357 0,8.496 0,8.496" style="fill:rgb(178,175,109);fill-rule:nonzero;"/>
        </g>
        <g transform="matrix(1,0,0,1,308.662,174.279)">
            <path d="M0,-58.749C0,-58.749 -1.371,-51.451 -2.25,-38.371C-3.128,-25.291 -2.906,-11.639 -0.791,-7.069C1.325,-2.5 5.34,4.266 5.34,4.266C5.34,4.266 1.605,3.767 -2.25,0.716C-5.395,-1.773 -9.125,-4.676 -10.246,-5.781C-12.632,-8.134 -23.432,-20.433 -23.999,-22.831C-24.105,-23.28 -24.644,-23.934 -25.271,-25.214C-26.354,-27.425 -27.572,-32.918 -27.572,-32.918C-27.572,-32.918 -30.868,-38.705 -32.789,-43.601C-35.081,-49.442 -32.894,-56.296 -23.331,-58.488C-23.923,-54.981 -20.586,-38.367 -20.586,-38.367L-17.414,-36.186C-17.414,-36.186 -16.82,-63.015 -9.382,-61.918C-2.969,-60.973 0,-58.749 0,-58.749" style="fill:rgb(199,85,84);fill-rule:nonzero;"/>
        </g>
        <g transform="matrix(-0.955029,-0.296513,-0.296513,0.955029,319.998,153.319)">
            <path d="M-2.261,-18.344C-2.261,-18.344 -9.369,-2.925 -7.752,-0.657C-6.135,1.611 -1.419,3.428 -2.261,1.048C-3.103,-1.333 -0.897,-15.46 -0.563,-16.535C-0.229,-17.609 -0.691,-20.518 -2.261,-18.344" style="fill:rgb(199,85,84);fill-rule:nonzero;"/>
        </g>
        <g transform="matrix(1,0,0,1,209.34,328.6)">
            <path d="M0,5.453L49.626,0.625C49.626,0.625 63.349,-29.987 72.145,-33.858C80.942,-37.728 91.85,-38.783 97.127,-33.858C102.405,-28.931 104.868,-18.727 104.868,-18.727C104.868,-18.727 97.479,-19.109 93.609,-24.021C89.738,-28.931 82.808,-24.737 82.808,-24.737C82.808,-24.737 96.541,-20.135 99.122,-13.449C101.702,-6.764 105.924,4.651 101.35,5.453C96.775,6.255 84.611,5.551 78.73,2.385C72.849,-0.782 71.441,5.757 71.441,5.757C71.441,5.757 72.849,17.162 61.589,22.089C50.33,27.015 9.991,44.236 9.991,44.236L0,5.453Z" style="fill:rgb(227,114,100);fill-rule:nonzero;"/>
        </g>
        <g transform="matrix(0.999923,-0.0123837,-0.0123837,-0.999923,279.478,342.677)">
            <path d="M0.081,1.209L195.499,1.209L187.367,-15.473L-0.096,-13.151L0.081,1.209Z" style="fill:rgb(207,198,219);fill-rule:nonzero;"/>
        </g>
        <g transform="matrix(0.999923,-0.0123837,-0.0123837,-0.999923,279.53,342.677)">
            <path d="M0.029,1.21L195.447,1.21L191.381,-7.132L-0.034,-3.88L0.029,1.21Z" style="fill:rgb(172,169,190);fill-rule:nonzero;"/>
        </g>
        <g transform="matrix(1,0,0,1,278.384,455.216)">
            <path d="M0,-100.448C0,-100.448 21.835,-114.456 33.783,-115.692C45.731,-116.927 37.079,-118.988 61.387,-110.748C85.694,-102.508 93.934,-100.448 93.934,-100.448L187.044,-100.448L194.048,-104.156C194.048,-104.156 207.231,-100.793 232.363,-108.655C257.494,-116.515 285.51,-123.108 307.758,-120.635C330.005,-118.163 328.769,-110.336 332.064,-100.448C335.36,-90.56 336.185,-70.372 324.237,-59.66C312.289,-48.949 215.884,0.49 215.884,0.49C215.884,0.49 199.815,2.962 192.399,2.55C187.044,7.906 183.937,19.812 171.514,21.106C159.089,22.401 132.946,22.66 132.946,22.66L132.17,-13.266C132.17,-13.266 119.838,-9.799 104.267,-8.805C88.695,-7.811 26.078,1.135 14.813,-9.468C3.548,-20.07 -17.655,-38.623 -17.324,-50.881C-16.993,-63.14 -9.843,-90.379 0,-100.448" style="fill:rgb(0,129,167);fill-rule:nonzero;"/>
        </g>
        <g transform="matrix(1,0,0,1,389.573,384.133)">
            <path d="M0,-21.808C0,-21.808 68.541,-25.773 74.771,-21.808C81.003,-17.843 79.021,-11.833 92.332,-11.298C105.644,-10.762 139.914,-24.032 154.075,-30.85C168.237,-37.669 101.962,8.497 95.73,12.18C89.5,15.861 71.373,15.012 51.83,5.099C32.288,-4.814 0,-21.808 0,-21.808" style="fill:rgb(32,111,135);fill-rule:nonzero;"/>
        </g>
        <g transform="matrix(1,0,0,1,292.148,451.409)">
            <path d="M0,-15.017C0,-15.017 6.384,-15.914 37.336,-15.017C68.289,-14.12 118.406,-9.459 118.406,-9.459L94.45,-5.308L29.261,-0.532C29.261,-0.532 14.995,2.661 6.228,-2.921C-5.502,-10.39 -18.375,-17.678 0,-15.017" style="fill:rgb(32,111,135);fill-rule:nonzero;"/>
        </g>
        <g transform="matrix(1,0,0,1,386.958,341.917)">
            <path d="M0,-107.455C0,-107.455 -13.486,-110.009 -18.813,-98.527C-24.822,-85.575 -59.362,-1.629 -59.362,-1.629L-53.245,0.48L85.456,2.554L128.185,-88.961C128.185,-88.961 136.794,-106.498 124.996,-106.498C113.197,-106.498 0,-107.455 0,-107.455" style="fill:rgb(196,184,208);fill-rule:nonzero;"/>
        </g>
        <g transform="matrix(1,0,0,1,383.919,343.516)">
            <path d="M0,-103.872C0,-103.872 -8.791,-104.111 -11.838,-96.131C-16.276,-84.513 -50.542,-5.519 -50.542,-5.519C-50.542,-5.519 -50.499,-1.158 -49.133,-1.158C-47.767,-1.158 85.591,0.911 85.591,0.911L129.771,-94.31C129.771,-94.31 132.504,-104.071 125.219,-104.427C117.934,-104.783 0,-103.872 0,-103.872" style="fill:rgb(207,198,219);fill-rule:nonzero;"/>
        </g>
        <g transform="matrix(-0.589819,0.807535,0.807535,0.589819,446.096,344.291)">
            <path d="M-85.948,-60.217L42.683,-60.217L30.163,-43.076L-98.044,-43.657L-85.948,-60.217Z" style="fill:rgb(224,218,232);fill-rule:nonzero;"/>
        </g>
        <g transform="matrix(1,0,0,1,475.865,343.242)">
            <path d="M0,-103.874L10.434,-103.874L-65.841,0L-75.915,0L0,-103.874Z" style="fill:rgb(224,218,232);fill-rule:nonzero;"/>
        </g>
        <g transform="matrix(-0.997567,0.0697208,0.0697208,0.997567,429.605,301.704)">
            <path d="M0.698,-19.997C-5.225,-19.998 -10.029,-15.516 -10.028,-9.987C-10.029,-4.458 -5.227,0.024 0.698,0.025C6.621,0.025 11.424,-4.457 11.424,-9.986C11.425,-15.515 6.621,-19.997 0.698,-19.997" style="fill:rgb(251,253,250);fill-rule:nonzero;"/>
        </g>
        <g transform="matrix(1,0,0,1,304.816,125.448)">
            <path d="M0,6.813C0,6.813 13.95,-2.595 21.574,8.11L18.654,9.408C18.654,9.408 13.95,1.46 0,6.813" style="fill:rgb(44,12,25);fill-rule:nonzero;"/>
        </g>
        <g transform="matrix(0.26374,0.964594,0.964594,-0.26374,335.789,127.652)">
            <path d="M5.456,-3.367C5.456,-3.367 1.562,3.721 2.834,7.674L5.456,6.958C5.456,6.958 5.74,-1.628 6.475,-2.785C7.21,-3.942 5.456,-3.367 5.456,-3.367" style="fill:rgb(44,12,25);fill-rule:nonzero;"/>
        </g>
        <g transform="matrix(1,0,0,1,310.105,140.332)">
            <path d="M0,-3.861C0,-3.861 12.069,-3.94 13.237,-2.804C14.406,-1.667 11.522,0.079 9.039,-0.035C6.556,-0.148 0,-3.861 0,-3.861" style="fill:rgb(64,44,69);fill-rule:nonzero;"/>
        </g>
        <g transform="matrix(1,0,0,1,340.304,140.929)">
            <path d="M0,-4.868L-6.449,-3.171C-6.449,-3.171 -6.723,-2.137 -6.088,-1.671C-3.817,0 0,-4.868 0,-4.868" style="fill:rgb(64,44,69);fill-rule:nonzero;"/>
        </g>
        <g transform="matrix(1,0,0,1,190.561,286.641)">
            <path d="M0,51.375C0,51.375 16.982,44.183 67.328,41.985C67.328,41.985 77.117,10.02 95.298,6.224C100.692,5.025 118.519,0 123.157,21.485C123.157,21.485 111.48,7.022 104.288,8.221C97.096,9.42 81.712,8.021 69.925,44.782C69.925,44.782 13.386,48.978 0,51.375" style="fill:rgb(245,175,150);fill-rule:nonzero;"/>
        </g>
        <g transform="matrix(1,0,0,1,314.248,165.934)">
            <path d="M0,-2.093C0,-2.093 2.703,1.624 6.047,1.99C9.391,2.355 11.39,1.669 12.957,0.676C14.524,-0.317 16.381,-4.448 16.381,-4.448L-1.184,-4.382C-1.184,-4.382 -0.717,-2.712 0,-2.093" style="fill:white;fill-rule:nonzero;"/>
        </g>
        <g transform="matrix(0.0391519,0.999233,0.999233,-0.0391519,321.791,152.382)">
            <path d="M8.821,-9.08C8.821,-9.08 7.299,0.596 7.879,1.815C8.459,3.034 7.984,6.882 8.821,8.391C9.261,9.181 10.476,8.04 10.521,3.357C10.638,-8.849 8.821,-9.08 8.821,-9.08" style="fill:rgb(206,76,74);fill-rule:nonzero;"/>
        </g>
    </g>
</svg>
