<svg id="Info_section_graphic" data-name="Info section graphic" xmlns="http://www.w3.org/2000/svg" width="1080.03" height="1080.03" viewBox="0 0 700 700">
  <defs>
    <style>
      .cls-1 {
        fill: #8e9aaf;
        stroke: #fff;
        stroke-width: 1px;
      }

      .cls-1, .cls-2 {
        fill-rule: evenodd;
      }

      .cls-2 {
        fill: #fff;
      }
    </style>
  </defs>
  <path id="Rounded_Rectangle_5" data-name="Rounded Rectangle 5" class="cls-1" d="M312.03,319.354L475.5,486.159a25.012,25.012,0,0,1-.351,35.361L308.407,685.051a24.987,24.987,0,0,1-35.346-.35L109.6,517.9a25.013,25.013,0,0,1,.35-35.361L276.683,319A24.988,24.988,0,0,1,312.03,319.354Z"/>
  <path id="Rounded_Rectangle_5_copy_3" data-name="Rounded Rectangle 5 copy 3" class="cls-1" d="M311.22,16.3L417.982,125.245a25.012,25.012,0,0,1-.351,35.361l-108.9,106.805a24.987,24.987,0,0,1-35.346-.35L166.624,158.117a25.012,25.012,0,0,1,.351-35.361l108.9-106.8A24.987,24.987,0,0,1,311.22,16.3Z"/>
  <path id="Rounded_Rectangle_5_copy" data-name="Rounded Rectangle 5 copy" class="cls-1" d="M180.815,198.619l78.41,80.013a25.012,25.012,0,0,1-.35,35.36L178.9,392.434a24.989,24.989,0,0,1-35.347-.35l-78.41-80.013a25.011,25.011,0,0,1,.351-35.36l79.979-78.442A24.989,24.989,0,0,1,180.815,198.619Z"/>
  <path id="Rounded_Rectangle_5_copy_2" data-name="Rounded Rectangle 5 copy 2" class="cls-1" d="M500.753,141.088L635.866,278.962a25.013,25.013,0,0,1-.35,35.361L497.7,449.491a24.989,24.989,0,0,1-35.347-.35L327.238,311.266a25.013,25.013,0,0,1,.35-35.361L465.406,140.737A24.988,24.988,0,0,1,500.753,141.088Z"/>
  <path id="_28_900_Data_Engineers" data-name="28,900  Data Engineers" class="cls-2" d="M227.215,467.036V470.4H246.9V466.55H234.059l1.822-1.621q3.159-2.794,5.2-4.922a22.615,22.615,0,0,0,3.524-4.822,11.514,11.514,0,0,0,1.478-5.611,8.641,8.641,0,0,0-2.491-6.482,10.758,10.758,0,0,0-13.648.02q-2.652,2.451-2.774,7.07h4.455a6.321,6.321,0,0,1,1.4-4.072,4.638,4.638,0,0,1,3.706-1.519,4.467,4.467,0,0,1,3.624,1.377,5.753,5.753,0,0,1,1.155,3.809,8.681,8.681,0,0,1-1.5,4.7,24.877,24.877,0,0,1-3.746,4.518q-2.247,2.168-6.135,5.53Zm28.713-11.668a7.506,7.506,0,0,0-3.6,2.755,7.7,7.7,0,0,0-1.337,4.537,8.27,8.27,0,0,0,1.337,4.66,8.677,8.677,0,0,0,3.7,3.119,12.752,12.752,0,0,0,5.407,1.094,12.883,12.883,0,0,0,5.426-1.094,8.655,8.655,0,0,0,3.726-3.119,8.27,8.27,0,0,0,1.337-4.66,7.721,7.721,0,0,0-1.337-4.517,7.449,7.449,0,0,0-3.645-2.775A7.666,7.666,0,0,0,270,452.714a6.994,6.994,0,0,0,1.154-3.991,7.419,7.419,0,0,0-4.394-6.908,13.8,13.8,0,0,0-10.671,0,7.448,7.448,0,0,0-4.374,6.908,6.975,6.975,0,0,0,4.212,6.645h0Zm10.813-6.078a4.2,4.2,0,0,1-1.5,3.323,6.249,6.249,0,0,1-7.594.02,4.157,4.157,0,0,1-1.478-3.3,4.387,4.387,0,0,1,1.417-3.525,5.717,5.717,0,0,1,3.848-1.215,5.784,5.784,0,0,1,3.888,1.215,4.341,4.341,0,0,1,1.417,3.484h0Zm-5.305,8.1a6.616,6.616,0,0,1,4.313,1.337,4.59,4.59,0,0,1,1.64,3.768,4.82,4.82,0,0,1-1.6,3.728,6.219,6.219,0,0,1-4.353,1.458,6.412,6.412,0,0,1-4.415-1.438,4.776,4.776,0,0,1-1.62-3.748,4.526,4.526,0,0,1,1.681-3.788,6.858,6.858,0,0,1,4.354-1.317h0Zm16,7.86-2.875,11.182h3l4.9-11.182h-5.022Zm14.215-2.471h-4.253a8.647,8.647,0,0,0,2.633,5.713,9.225,9.225,0,0,0,6.682,2.268,9.354,9.354,0,0,0,5.953-1.7,9.119,9.119,0,0,0,3.017-5.024,34.585,34.585,0,0,0,.871-8.549q0-7.575-2.329-11.243t-7.836-3.666a9.087,9.087,0,0,0-9.8,9.764,10.127,10.127,0,0,0,1.235,5.165,7.964,7.964,0,0,0,3.382,3.2,10.53,10.53,0,0,0,4.779,1.074,9.666,9.666,0,0,0,3.827-.75,6.221,6.221,0,0,0,2.734-2.127q0,5.47-1.337,7.739a4.533,4.533,0,0,1-4.212,2.268,5.661,5.661,0,0,1-3.6-1.053,4.992,4.992,0,0,1-1.741-3.079h0Zm5.143-6.888a5.558,5.558,0,0,1-4.354-1.6A5.864,5.864,0,0,1,291,450.222a5.933,5.933,0,0,1,1.478-4.193,5.213,5.213,0,0,1,4.029-1.6,5.291,5.291,0,0,1,4.03,1.559,6.085,6.085,0,0,1,1.478,4.356,5.722,5.722,0,0,1-1.4,4.031,4.94,4.94,0,0,1-3.827,1.519h0Zm14.822-.243q0,7.09,2.369,11.081t8.161,3.991q5.79,0,8.16-3.991t2.369-11.081q0-7.008-2.369-10.959t-8.16-3.95q-5.793,0-8.161,3.95t-2.369,10.959h0Zm16.524,0a33.949,33.949,0,0,1-.405,5.713,7.161,7.161,0,0,1-1.722,3.727,5.983,5.983,0,0,1-7.735,0,7.145,7.145,0,0,1-1.721-3.727,33.844,33.844,0,0,1-.4-5.713,30.773,30.773,0,0,1,.425-5.55,7.459,7.459,0,0,1,1.721-3.707,5.863,5.863,0,0,1,7.695,0,7.45,7.45,0,0,1,1.721,3.707,30.672,30.672,0,0,1,.426,5.55h0Zm9.435,0q0,7.09,2.37,11.081t8.16,3.991q5.791,0,8.16-3.991t2.37-11.081q0-7.008-2.37-10.959t-8.16-3.95q-5.791,0-8.16,3.95t-2.37,10.959h0Zm16.524,0a33.949,33.949,0,0,1-.405,5.713,7.16,7.16,0,0,1-1.721,3.727,5.985,5.985,0,0,1-7.736,0,7.153,7.153,0,0,1-1.721-3.727,33.844,33.844,0,0,1-.4-5.713,30.773,30.773,0,0,1,.425-5.55,7.451,7.451,0,0,1,1.722-3.707,5.862,5.862,0,0,1,7.694,0,7.45,7.45,0,0,1,1.721,3.707,30.672,30.672,0,0,1,.426,5.55h0ZM151.2,489.913h-9.193v28.158H151.2a17.48,17.48,0,0,0,7.877-1.681,12.172,12.172,0,0,0,5.225-4.842,14.537,14.537,0,0,0,1.842-7.454,14.88,14.88,0,0,0-1.842-7.516,12.332,12.332,0,0,0-5.225-4.943,17.148,17.148,0,0,0-7.877-1.722h0Zm0,24.39h-4.576V493.681H151.2q4.941,0,7.574,2.755t2.632,7.658q0,4.861-2.632,7.536T151.2,514.3h0Zm17.982-7.5a12.712,12.712,0,0,0,1.4,6.017,10.469,10.469,0,0,0,3.787,4.132,10.35,10.35,0,0,0,9.881.426,9.173,9.173,0,0,0,3.2-2.634v3.322H192.1V495.748h-4.657v3.241a9.353,9.353,0,0,0-3.139-2.573,9.738,9.738,0,0,0-4.6-1.033,10.179,10.179,0,0,0-9.132,5.469,12.357,12.357,0,0,0-1.4,5.956h0Zm18.265,0.081a8.2,8.2,0,0,1-.952,4.031A6.646,6.646,0,0,1,184,513.534a6.516,6.516,0,0,1-3.321.891,6.432,6.432,0,0,1-3.3-.912,6.705,6.705,0,0,1-2.511-2.653,8.312,8.312,0,0,1-.952-4.052,7.965,7.965,0,0,1,.952-3.99,6.566,6.566,0,0,1,2.49-2.553,6.638,6.638,0,0,1,3.321-.871,6.516,6.516,0,0,1,3.321.891,6.7,6.7,0,0,1,2.491,2.593,8.094,8.094,0,0,1,.952,4.011h0Zm21.544-7.373v-3.768h-5.426V490.2h-4.658v5.551h-2.632v3.768h2.632v12.357q0,3.28,1.661,4.74a7.024,7.024,0,0,0,4.779,1.458h3.644v-3.849h-2.834a2.921,2.921,0,0,1-2.005-.546,2.372,2.372,0,0,1-.587-1.8V499.516h5.426Zm2.714,7.292a12.712,12.712,0,0,0,1.4,6.017,10.474,10.474,0,0,0,3.786,4.132,10.352,10.352,0,0,0,9.882.426,9.16,9.16,0,0,0,3.2-2.634v3.322h4.658V495.748h-4.658v3.241a9.339,9.339,0,0,0-3.138-2.573,9.738,9.738,0,0,0-4.6-1.033,10.179,10.179,0,0,0-9.132,5.469,12.357,12.357,0,0,0-1.4,5.956h0Zm18.264,0.081a8.2,8.2,0,0,1-.951,4.031,6.646,6.646,0,0,1-2.491,2.614,6.516,6.516,0,0,1-3.321.891,6.432,6.432,0,0,1-3.3-.912,6.705,6.705,0,0,1-2.511-2.653,8.312,8.312,0,0,1-.952-4.052,7.965,7.965,0,0,1,.952-3.99,6.566,6.566,0,0,1,2.49-2.553,6.638,6.638,0,0,1,3.321-.871,6.516,6.516,0,0,1,3.321.891,6.7,6.7,0,0,1,2.491,2.593,8.094,8.094,0,0,1,.951,4.011h0Zm36.813-13.248v-3.768H251.231v28.2h15.551V514.3H255.848v-8.629h9.719v-3.768h-9.719v-8.265h10.934Zm16.928,1.742a9.255,9.255,0,0,0-3.746.77,7.641,7.641,0,0,0-2.9,2.147v-2.552h-4.617v22.323h4.617V505.593a6.427,6.427,0,0,1,1.519-4.6,5.4,5.4,0,0,1,4.111-1.6,5.335,5.335,0,0,1,4.09,1.6,6.488,6.488,0,0,1,1.5,4.6v12.478h4.577V504.9a10.666,10.666,0,0,0-1.175-5.186,7.781,7.781,0,0,0-3.26-3.241,10.008,10.008,0,0,0-4.718-1.094h0Zm24.015,0a10.176,10.176,0,0,0-9.132,5.469,12.357,12.357,0,0,0-1.4,5.956,12.712,12.712,0,0,0,1.4,6.017,10.427,10.427,0,0,0,3.806,4.132,9.974,9.974,0,0,0,5.326,1.479,9.594,9.594,0,0,0,7.735-3.727v3.727a6.652,6.652,0,0,1-1.721,4.943,6.148,6.148,0,0,1-4.516,1.7,7.613,7.613,0,0,1-4.11-1.074,4.971,4.971,0,0,1-2.248-2.816h-4.576a7.842,7.842,0,0,0,3.4,5.773,12.691,12.691,0,0,0,7.532,2.127,11.767,11.767,0,0,0,5.853-1.377,9.385,9.385,0,0,0,3.746-3.788,11.424,11.424,0,0,0,1.3-5.49V495.748H315.46v3.241a8.838,8.838,0,0,0-3.138-2.573,9.892,9.892,0,0,0-4.6-1.033h0Zm7.735,11.506a8.2,8.2,0,0,1-.951,4.031,6.646,6.646,0,0,1-2.491,2.614,6.516,6.516,0,0,1-3.321.891,6.436,6.436,0,0,1-3.3-.912,6.712,6.712,0,0,1-2.511-2.653,8.323,8.323,0,0,1-.951-4.052,7.975,7.975,0,0,1,.951-3.99,6.568,6.568,0,0,1,2.491-2.553,6.638,6.638,0,0,1,3.321-.871,6.516,6.516,0,0,1,3.321.891,6.7,6.7,0,0,1,2.491,2.593,8.094,8.094,0,0,1,.951,4.011h0Zm13.081-14.1a2.811,2.811,0,0,0,2.065-.851,3.033,3.033,0,0,0,0-4.213,2.808,2.808,0,0,0-2.065-.851,2.958,2.958,0,1,0,0,5.915h0Zm-2.349,2.958v22.323h4.617V495.748h-4.617Zm21.95-.365a9.255,9.255,0,0,0-3.746.77,7.641,7.641,0,0,0-2.9,2.147v-2.552h-4.617v22.323H341.5V505.593a6.427,6.427,0,0,1,1.519-4.6,5.4,5.4,0,0,1,4.111-1.6,5.335,5.335,0,0,1,4.09,1.6,6.488,6.488,0,0,1,1.5,4.6v12.478H357.3V504.9a10.666,10.666,0,0,0-1.175-5.186,7.781,7.781,0,0,0-3.26-3.241,10.008,10.008,0,0,0-4.718-1.094h0Zm35.476,10.98a11.656,11.656,0,0,0-1.377-5.733,9.744,9.744,0,0,0-3.847-3.87,11.377,11.377,0,0,0-5.629-1.377,11.691,11.691,0,0,0-5.812,1.418,9.825,9.825,0,0,0-3.928,4.031,12.65,12.65,0,0,0-1.4,6.057,12.357,12.357,0,0,0,1.438,6.057A10.228,10.228,0,0,0,367.034,517a11.389,11.389,0,0,0,5.731,1.438,10.753,10.753,0,0,0,6.581-1.965,10.063,10.063,0,0,0,3.665-5.044h-4.982a5.4,5.4,0,0,1-5.264,3.12,6.257,6.257,0,0,1-4.374-1.621,6.191,6.191,0,0,1-1.985-4.3h17.05a14.426,14.426,0,0,0,.162-2.268h0ZM366.447,504.9a6.351,6.351,0,0,1,2.025-4.112,5.927,5.927,0,0,1,4.09-1.52,6.515,6.515,0,0,1,4.414,1.54A5.258,5.258,0,0,1,378.8,504.9H366.447Zm42.158,1.459a11.656,11.656,0,0,0-1.377-5.733,9.738,9.738,0,0,0-3.847-3.87,11.374,11.374,0,0,0-5.629-1.377,11.691,11.691,0,0,0-5.812,1.418,9.831,9.831,0,0,0-3.928,4.031,12.649,12.649,0,0,0-1.4,6.057,12.368,12.368,0,0,0,1.437,6.057A10.228,10.228,0,0,0,392.021,517a11.392,11.392,0,0,0,5.731,1.438,10.753,10.753,0,0,0,6.581-1.965A10.057,10.057,0,0,0,408,511.427h-4.982a5.4,5.4,0,0,1-5.264,3.12,6.261,6.261,0,0,1-4.374-1.621,6.191,6.191,0,0,1-1.985-4.3h17.05a14.426,14.426,0,0,0,.162-2.268h0ZM391.434,504.9a6.351,6.351,0,0,1,2.025-4.112,5.927,5.927,0,0,1,4.09-1.52,6.52,6.52,0,0,1,4.415,1.54,5.26,5.26,0,0,1,1.822,4.092H391.434Zm26.324-5.915v-3.241h-4.617v22.323h4.617V506.322q0-3.4,1.4-4.781a5.62,5.62,0,0,1,4.11-1.377h1.175v-4.781a7.969,7.969,0,0,0-3.989.952,7.239,7.239,0,0,0-2.693,2.654h0Zm19.033,19.447a11.094,11.094,0,0,0,4.516-.851,6.976,6.976,0,0,0,2.976-2.35,5.774,5.774,0,0,0,1.053-3.4,5.2,5.2,0,0,0-1.174-3.444,7.438,7.438,0,0,0-2.693-1.965,30.055,30.055,0,0,0-3.989-1.316q-1.823-.527-2.754-0.871a4.6,4.6,0,0,1-1.58-.953,1.972,1.972,0,0,1-.648-1.5,2.134,2.134,0,0,1,.972-1.823,4.8,4.8,0,0,1,2.795-.689,4.544,4.544,0,0,1,2.956.892,3.29,3.29,0,0,1,1.215,2.39h4.617a6.913,6.913,0,0,0-2.491-5.247,9.328,9.328,0,0,0-6.135-1.924,11.273,11.273,0,0,0-4.516.851,7.012,7.012,0,0,0-3.017,2.329,5.5,5.5,0,0,0-1.053,3.262A5.209,5.209,0,0,0,429,505.35a7.177,7.177,0,0,0,2.734,1.985,36.524,36.524,0,0,0,4.09,1.337,22.408,22.408,0,0,1,3.787,1.337,1.978,1.978,0,0,1,1.195,1.864,2.263,2.263,0,0,1-1.074,1.924,5.212,5.212,0,0,1-3.017.75,4.928,4.928,0,0,1-3.1-.952,3.26,3.26,0,0,1-1.357-2.371h-4.778a6.458,6.458,0,0,0,1.3,3.667,8.275,8.275,0,0,0,3.3,2.593,11.248,11.248,0,0,0,4.718.952h0Z"/>
  <path id="_21_970_Data_Analysts" data-name="21,970 Data Analysts" class="cls-2" d="M433.959,269.005v2.8h16.4V268.6h-10.7l1.518-1.35q2.632-2.329,4.337-4.1a18.834,18.834,0,0,0,2.936-4.018,9.6,9.6,0,0,0,1.232-4.676,7.2,7.2,0,0,0-2.076-5.4,8.011,8.011,0,0,0-13.685,5.908h3.713a5.265,5.265,0,0,1,1.164-3.393,3.865,3.865,0,0,1,3.088-1.266,3.726,3.726,0,0,1,3.021,1.148,4.8,4.8,0,0,1,.961,3.174,7.237,7.237,0,0,1-1.248,3.916A20.749,20.749,0,0,1,441.5,262.3q-1.874,1.806-5.113,4.608Zm22.409-17.961v21.1h3.881V247.532h-7.02v3.512h3.139Zm9.719,16.476-2.4,9.318h2.5l4.083-9.318h-4.185Zm11.846-2.06h-3.544a7.209,7.209,0,0,0,2.194,4.761,7.689,7.689,0,0,0,5.569,1.89,7.791,7.791,0,0,0,4.961-1.418,7.6,7.6,0,0,0,2.514-4.186,28.872,28.872,0,0,0,.725-7.124q0-6.313-1.94-9.369t-6.53-3.056a7.574,7.574,0,0,0-8.168,8.137,8.433,8.433,0,0,0,1.03,4.3,6.627,6.627,0,0,0,2.818,2.667,8.765,8.765,0,0,0,3.982.895,8.045,8.045,0,0,0,3.189-.625,5.191,5.191,0,0,0,2.278-1.772q0,4.557-1.113,6.448a3.779,3.779,0,0,1-3.51,1.891,4.718,4.718,0,0,1-3-.878,4.167,4.167,0,0,1-1.451-2.566h0Zm4.286-5.739a4.631,4.631,0,0,1-3.628-1.334,4.884,4.884,0,0,1-1.2-3.393,4.942,4.942,0,0,1,1.232-3.494,4.346,4.346,0,0,1,3.358-1.334,4.409,4.409,0,0,1,3.358,1.3,5.065,5.065,0,0,1,1.232,3.629,4.772,4.772,0,0,1-1.165,3.36,4.117,4.117,0,0,1-3.189,1.266h0Zm27.944-12.087H493.9v3.275h12.487L496.9,272.145h3.881l9.382-21.642v-2.869Zm3.307,11.884q0,5.909,1.974,9.234t6.8,3.326q4.826,0,6.8-3.326t1.974-9.234q0-5.841-1.974-9.133t-6.8-3.292q-4.827,0-6.8,3.292t-1.974,9.133h0Zm13.77,0a28.2,28.2,0,0,1-.338,4.761,5.96,5.96,0,0,1-1.434,3.106,4.988,4.988,0,0,1-6.446,0,5.953,5.953,0,0,1-1.435-3.106,28.208,28.208,0,0,1-.337-4.761,25.627,25.627,0,0,1,.354-4.625,6.217,6.217,0,0,1,1.435-3.09,4.889,4.889,0,0,1,6.412,0,6.216,6.216,0,0,1,1.434,3.09,25.617,25.617,0,0,1,.355,4.625h0ZM374.613,289.2h-7.661V312.66h7.661a14.571,14.571,0,0,0,6.564-1.4,10.151,10.151,0,0,0,4.354-4.034,12.125,12.125,0,0,0,1.535-6.213,12.4,12.4,0,0,0-1.535-6.263,10.275,10.275,0,0,0-4.354-4.119,14.29,14.29,0,0,0-6.564-1.435h0Zm0,20.325H370.8V292.335h3.814a8.322,8.322,0,0,1,6.311,2.3,8.864,8.864,0,0,1,2.194,6.381,8.572,8.572,0,0,1-2.194,6.28,8.462,8.462,0,0,1-6.311,2.228h0Zm14.984-6.246a10.587,10.587,0,0,0,1.165,5.014,8.73,8.73,0,0,0,3.155,3.444,8.626,8.626,0,0,0,8.235.354,7.64,7.64,0,0,0,2.666-2.194v2.768H408.7v-18.6h-3.881v2.7a7.788,7.788,0,0,0-2.616-2.144,8.113,8.113,0,0,0-3.83-.861,8.483,8.483,0,0,0-7.61,4.558,10.292,10.292,0,0,0-1.165,4.963h0Zm15.221,0.068a6.84,6.84,0,0,1-.793,3.359,5.54,5.54,0,0,1-2.076,2.178,5.429,5.429,0,0,1-2.767.743,5.369,5.369,0,0,1-2.751-.76,5.587,5.587,0,0,1-2.092-2.211,6.932,6.932,0,0,1-.793-3.377,6.637,6.637,0,0,1,.793-3.325,5.463,5.463,0,0,1,2.076-2.127,5.521,5.521,0,0,1,2.767-.726,5.429,5.429,0,0,1,2.767.743,5.57,5.57,0,0,1,2.076,2.16,6.75,6.75,0,0,1,.793,3.343h0Zm17.954-6.145v-3.14H418.25v-4.625h-3.881v4.625h-2.194v3.14h2.194v10.3a5.011,5.011,0,0,0,1.383,3.95,5.856,5.856,0,0,0,3.983,1.215h3.037v-3.207H420.41a2.432,2.432,0,0,1-1.671-.456,1.977,1.977,0,0,1-.489-1.5V297.2h4.522Zm2.261,6.077a10.6,10.6,0,0,0,1.164,5.014,8.74,8.74,0,0,0,3.156,3.444,8.626,8.626,0,0,0,8.235.354,7.649,7.649,0,0,0,2.666-2.194v2.768h3.881v-18.6h-3.881v2.7a7.788,7.788,0,0,0-2.616-2.144,8.113,8.113,0,0,0-3.83-.861,8.486,8.486,0,0,0-7.611,4.558,10.3,10.3,0,0,0-1.164,4.963h0Zm15.221,0.068a6.84,6.84,0,0,1-.793,3.359,5.54,5.54,0,0,1-2.076,2.178,5.432,5.432,0,0,1-2.767.743,5.369,5.369,0,0,1-2.751-.76,5.587,5.587,0,0,1-2.092-2.211,6.932,6.932,0,0,1-.793-3.377,6.637,6.637,0,0,1,.793-3.325,5.468,5.468,0,0,1,2.075-2.127,5.525,5.525,0,0,1,2.768-.726,5.432,5.432,0,0,1,2.767.743,5.57,5.57,0,0,1,2.076,2.16,6.75,6.75,0,0,1,.793,3.343h0ZM473.8,312.66h4.049l-8.4-23.5h-4.455l-8.4,23.5H460.6l1.687-4.794h9.821Zm-10.429-7.934,3.848-10.9,3.813,10.9h-7.661Zm27.5-10.973a7.706,7.706,0,0,0-3.122.642,6.38,6.38,0,0,0-2.413,1.789v-2.127h-3.847v18.6h3.847v-10.4a5.357,5.357,0,0,1,1.266-3.832,4.5,4.5,0,0,1,3.425-1.333,4.445,4.445,0,0,1,3.409,1.333,5.405,5.405,0,0,1,1.249,3.832v10.4H498.5V301.687a8.891,8.891,0,0,0-.978-4.321,6.49,6.49,0,0,0-2.717-2.7,8.336,8.336,0,0,0-3.932-.912h0Zm11.238,9.521a10.6,10.6,0,0,0,1.164,5.014,8.74,8.74,0,0,0,3.156,3.444,8.626,8.626,0,0,0,8.235.354,7.649,7.649,0,0,0,2.666-2.194v2.768h3.881v-18.6h-3.881v2.7a7.788,7.788,0,0,0-2.616-2.144,8.113,8.113,0,0,0-3.83-.861,8.486,8.486,0,0,0-7.611,4.558,10.3,10.3,0,0,0-1.164,4.963h0Zm15.221,0.068a6.84,6.84,0,0,1-.793,3.359,5.54,5.54,0,0,1-2.076,2.178,5.432,5.432,0,0,1-2.767.743,5.369,5.369,0,0,1-2.751-.76,5.587,5.587,0,0,1-2.092-2.211,6.932,6.932,0,0,1-.793-3.377,6.637,6.637,0,0,1,.793-3.325,5.468,5.468,0,0,1,2.075-2.127,5.525,5.525,0,0,1,2.768-.726,5.432,5.432,0,0,1,2.767.743,5.57,5.57,0,0,1,2.076,2.16,6.75,6.75,0,0,1,.793,3.343h0Zm8.943-15.666V312.66h3.847V287.676h-3.847Zm21.666,6.381-5.433,14.18-5.231-14.18h-4.286l7.323,18.3-3.78,9.049h3.983l11.407-27.348h-3.983Zm13.634,18.907a9.235,9.235,0,0,0,3.763-.709,5.824,5.824,0,0,0,2.481-1.958,4.814,4.814,0,0,0,.877-2.836,4.337,4.337,0,0,0-.978-2.87,6.2,6.2,0,0,0-2.245-1.637,24.966,24.966,0,0,0-3.324-1.1q-1.518-.438-2.3-0.726a3.829,3.829,0,0,1-1.316-.793,1.645,1.645,0,0,1-.54-1.249,1.779,1.779,0,0,1,.81-1.52A4,4,0,0,1,561.14,297a3.785,3.785,0,0,1,2.463.742,2.745,2.745,0,0,1,1.013,1.992h3.847a5.762,5.762,0,0,0-2.075-4.372,7.772,7.772,0,0,0-5.113-1.6,9.4,9.4,0,0,0-3.763.709A5.841,5.841,0,0,0,555,296.4a4.581,4.581,0,0,0-.877,2.718,4.338,4.338,0,0,0,.962,2.937,5.965,5.965,0,0,0,2.278,1.654,30.091,30.091,0,0,0,3.408,1.114,18.7,18.7,0,0,1,3.156,1.115,1.646,1.646,0,0,1,1,1.553,1.883,1.883,0,0,1-.894,1.6,4.341,4.341,0,0,1-2.514.625,4.1,4.1,0,0,1-2.582-.793,2.719,2.719,0,0,1-1.131-1.976h-3.982a5.388,5.388,0,0,0,1.08,3.056,6.9,6.9,0,0,0,2.751,2.161,9.376,9.376,0,0,0,3.931.793h0ZM581.861,297.2v-3.14h-4.522v-4.625h-3.881v4.625h-2.194v3.14h2.194v10.3a5.011,5.011,0,0,0,1.383,3.95,5.856,5.856,0,0,0,3.983,1.215h3.037v-3.207H579.5a2.432,2.432,0,0,1-1.671-.456,1.977,1.977,0,0,1-.489-1.5V297.2h4.522Zm10.293,15.767a9.235,9.235,0,0,0,3.763-.709A5.818,5.818,0,0,0,598.4,310.3a4.814,4.814,0,0,0,.877-2.836,4.337,4.337,0,0,0-.978-2.87,6.191,6.191,0,0,0-2.245-1.637,24.966,24.966,0,0,0-3.324-1.1q-1.518-.438-2.295-0.726a3.829,3.829,0,0,1-1.316-.793,1.645,1.645,0,0,1-.54-1.249,1.779,1.779,0,0,1,.81-1.52,4,4,0,0,1,2.329-.573,3.785,3.785,0,0,1,2.463.742,2.745,2.745,0,0,1,1.013,1.992h3.847a5.762,5.762,0,0,0-2.075-4.372,7.772,7.772,0,0,0-5.113-1.6,9.4,9.4,0,0,0-3.763.709,5.841,5.841,0,0,0-2.515,1.942,4.581,4.581,0,0,0-.877,2.718,4.338,4.338,0,0,0,.962,2.937,5.965,5.965,0,0,0,2.278,1.654,30.091,30.091,0,0,0,3.408,1.114,18.7,18.7,0,0,1,3.156,1.115,1.646,1.646,0,0,1,1,1.553,1.883,1.883,0,0,1-.894,1.6,4.341,4.341,0,0,1-2.514.625,4.1,4.1,0,0,1-2.582-.793,2.715,2.715,0,0,1-1.13-1.976h-3.983a5.388,5.388,0,0,0,1.08,3.056,6.9,6.9,0,0,0,2.751,2.161,9.376,9.376,0,0,0,3.931.793h0Z"/>
  <path id="_17_487_Data_Scientist" data-name="17,487 Data Scientist" class="cls-2" d="M255.813,106.034v16.881h3.105v-19.69H253.3v2.809h2.511Zm19.817-2.728H262.616v2.62h9.99l-7.587,16.989h3.105L275.63,105.6v-2.3Zm3.078,15.909-1.917,7.454h2l3.267-7.454h-3.348Zm15.038-.406v4.106h3.024v-4.106h2.511v-2.673H296.77V103.468h-3.726l-9.072,13.019v2.322h9.774Zm0.135-2.673h-6.372l6.372-9.535v9.535Zm11.258-3.512a5.01,5.01,0,0,0-2.4,1.837,5.131,5.131,0,0,0-.891,3.025,5.509,5.509,0,0,0,.891,3.106,5.785,5.785,0,0,0,2.471,2.08,8.508,8.508,0,0,0,3.6.729,8.6,8.6,0,0,0,3.618-.729,5.769,5.769,0,0,0,2.484-2.08,5.509,5.509,0,0,0,.891-3.106,5.151,5.151,0,0,0-.891-3.012,4.968,4.968,0,0,0-2.43-1.85,5.105,5.105,0,0,0,2.038-1.769,4.664,4.664,0,0,0,.77-2.66,4.949,4.949,0,0,0-2.93-4.606,9.205,9.205,0,0,0-7.114,0,4.966,4.966,0,0,0-2.916,4.606,4.65,4.65,0,0,0,2.808,4.429h0Zm7.209-4.051a2.8,2.8,0,0,1-1,2.214,4.162,4.162,0,0,1-5.062.014,2.77,2.77,0,0,1-.986-2.2,2.924,2.924,0,0,1,.945-2.35,3.811,3.811,0,0,1,2.565-.81,3.854,3.854,0,0,1,2.592.81,2.891,2.891,0,0,1,.945,2.323h0Zm-3.537,5.4a4.409,4.409,0,0,1,2.875.891,3.059,3.059,0,0,1,1.094,2.512,3.212,3.212,0,0,1-1.067,2.485,4.144,4.144,0,0,1-2.9.972,4.271,4.271,0,0,1-2.943-.959,3.183,3.183,0,0,1-1.08-2.5,3.018,3.018,0,0,1,1.121-2.526,4.572,4.572,0,0,1,2.9-.877h0Zm22.706-10.669H318.5v2.62h9.99l-7.587,16.989h3.105l7.506-17.313v-2.3Zm-125.179,34.6H200.21v18.771h6.128a11.661,11.661,0,0,0,5.252-1.12,8.127,8.127,0,0,0,3.483-3.228,9.7,9.7,0,0,0,1.228-4.97,9.923,9.923,0,0,0-1.228-5.01,8.225,8.225,0,0,0-3.483-3.3,11.431,11.431,0,0,0-5.252-1.147h0Zm0,16.26h-3.051V140.418h3.051a6.657,6.657,0,0,1,5.049,1.836,7.091,7.091,0,0,1,1.755,5.105,6.857,6.857,0,0,1-1.755,5.024,6.773,6.773,0,0,1-5.049,1.783h0Zm11.988-5a8.475,8.475,0,0,0,.931,4.011,6.993,6.993,0,0,0,2.525,2.755,6.9,6.9,0,0,0,6.588.283,6.118,6.118,0,0,0,2.132-1.755v2.214h3.1V141.795h-3.1v2.161a6.218,6.218,0,0,0-2.092-1.715,6.483,6.483,0,0,0-3.064-.689,6.788,6.788,0,0,0-6.089,3.646,8.241,8.241,0,0,0-.931,3.971h0Zm12.176,0.054a5.466,5.466,0,0,1-.634,2.687,4.425,4.425,0,0,1-1.66,1.742,4.341,4.341,0,0,1-2.214.6,4.3,4.3,0,0,1-2.2-.608,4.478,4.478,0,0,1-1.674-1.769,5.546,5.546,0,0,1-.634-2.7,5.316,5.316,0,0,1,.634-2.661,4.372,4.372,0,0,1,1.661-1.7,4.42,4.42,0,0,1,2.214-.581,4.35,4.35,0,0,1,2.214.594,4.456,4.456,0,0,1,1.66,1.729,5.388,5.388,0,0,1,.634,2.674h0Zm14.364-4.916v-2.512h-3.618v-3.7h-3.1v3.7h-1.755v2.512h1.755v8.238a4.007,4.007,0,0,0,1.107,3.16,4.684,4.684,0,0,0,3.186.972h2.43v-2.565h-1.89a1.948,1.948,0,0,1-1.337-.365,1.582,1.582,0,0,1-.391-1.2v-8.238h3.618Zm1.809,4.862a8.475,8.475,0,0,0,.931,4.011,6.991,6.991,0,0,0,2.524,2.755,6.9,6.9,0,0,0,6.588.283,6.113,6.113,0,0,0,2.133-1.755v2.214h3.105V141.795h-3.105v2.161a6.228,6.228,0,0,0-2.092-1.715,6.487,6.487,0,0,0-3.065-.689,6.788,6.788,0,0,0-6.088,3.646,8.241,8.241,0,0,0-.931,3.971h0Zm12.176,0.054a5.477,5.477,0,0,1-.634,2.687,4.421,4.421,0,0,1-1.661,1.742,4.335,4.335,0,0,1-2.214.6,4.29,4.29,0,0,1-2.2-.608,4.478,4.478,0,0,1-1.674-1.769,5.546,5.546,0,0,1-.635-2.7,5.317,5.317,0,0,1,.635-2.661,4.377,4.377,0,0,1,1.66-1.7,4.423,4.423,0,0,1,2.214-.581,4.344,4.344,0,0,1,2.214.594,4.451,4.451,0,0,1,1.661,1.729,5.4,5.4,0,0,1,.634,2.674h0Zm20.357,7.644a7.387,7.387,0,0,0,3.469-.77,5.552,5.552,0,0,0,2.241-2.039,5.128,5.128,0,0,0,.77-2.7,4.545,4.545,0,0,0-.824-2.85,5.057,5.057,0,0,0-2-1.58,23.1,23.1,0,0,0-3.037-1.026,20.715,20.715,0,0,1-2.214-.7,3.7,3.7,0,0,1-1.336-.878,1.971,1.971,0,0,1-.527-1.418,2.352,2.352,0,0,1,.837-1.944,3.333,3.333,0,0,1,2.16-.676,3.594,3.594,0,0,1,2.349.73,2.465,2.465,0,0,1,.972,1.755h3.4a5.036,5.036,0,0,0-1.931-3.741,7.032,7.032,0,0,0-4.468-1.364,8.241,8.241,0,0,0-3.375.649,5.174,5.174,0,0,0-2.268,1.863,5,5,0,0,0-.81,2.836,4.493,4.493,0,0,0,.81,2.81,4.926,4.926,0,0,0,1.958,1.553,21.329,21.329,0,0,0,2.983.985,20.939,20.939,0,0,1,2.281.7,3.7,3.7,0,0,1,1.377.918,2.17,2.17,0,0,1,.554,1.54,2.5,2.5,0,0,1-.891,1.985,3.68,3.68,0,0,1-2.484.77,3.392,3.392,0,0,1-2.389-.784,2.974,2.974,0,0,1-.959-2h-3.294a4.771,4.771,0,0,0,.864,2.836,5.584,5.584,0,0,0,2.376,1.877,8.4,8.4,0,0,0,3.4.662h0Zm9.1-7.644a8.439,8.439,0,0,0,.932,4.038,6.719,6.719,0,0,0,2.578,2.7,7.376,7.376,0,0,0,3.78.959,7.172,7.172,0,0,0,4.428-1.337,6.656,6.656,0,0,0,2.43-3.606h-3.321a3.417,3.417,0,0,1-3.537,2.35,3.706,3.706,0,0,1-3.01-1.351,6.824,6.824,0,0,1,0-7.5,3.725,3.725,0,0,1,3.01-1.337,3.828,3.828,0,0,1,2.241.621,3.519,3.519,0,0,1,1.3,1.729h3.321a6.315,6.315,0,0,0-2.39-3.66,8.241,8.241,0,0,0-8.248-.338,6.629,6.629,0,0,0-2.578,2.688,8.433,8.433,0,0,0-.932,4.038h0Zm18.791-9.4a1.875,1.875,0,0,0,1.377-.567,2.023,2.023,0,0,0,0-2.809,1.875,1.875,0,0,0-1.377-.567,1.972,1.972,0,1,0,0,3.943h0Zm-1.566,1.972v14.882h3.078V141.795h-3.078Zm20.762,7.077a7.769,7.769,0,0,0-.918-3.822,6.494,6.494,0,0,0-2.564-2.58,7.58,7.58,0,0,0-3.753-.918,7.8,7.8,0,0,0-3.875.945,6.555,6.555,0,0,0-2.619,2.688,8.433,8.433,0,0,0-.931,4.038,8.245,8.245,0,0,0,.958,4.038,6.822,6.822,0,0,0,2.646,2.7,7.6,7.6,0,0,0,3.821.959,7.17,7.17,0,0,0,4.387-1.31,6.7,6.7,0,0,0,2.443-3.363h-3.32a3.6,3.6,0,0,1-3.51,2.08,4.173,4.173,0,0,1-2.916-1.081,4.129,4.129,0,0,1-1.323-2.863h11.366a9.623,9.623,0,0,0,.108-1.512h0Zm-11.447-.973a4.232,4.232,0,0,1,1.35-2.741,3.954,3.954,0,0,1,2.727-1.013,4.348,4.348,0,0,1,2.943,1.026,3.513,3.513,0,0,1,1.215,2.728h-8.235Zm21.977-6.347a6.174,6.174,0,0,0-2.5.513,5.1,5.1,0,0,0-1.93,1.432v-1.7h-3.078v14.882H332.4v-8.319a4.283,4.283,0,0,1,1.012-3.065,3.6,3.6,0,0,1,2.741-1.067,3.557,3.557,0,0,1,2.727,1.067,4.324,4.324,0,0,1,1,3.065v8.319h3.051V147.9a7.123,7.123,0,0,0-.783-3.457,5.194,5.194,0,0,0-2.174-2.161,6.669,6.669,0,0,0-3.145-.729h0Zm17.225,2.755v-2.512H350.43v-3.7h-3.105v3.7H345.57v2.512h1.755v8.238a4.007,4.007,0,0,0,1.107,3.16,4.684,4.684,0,0,0,3.186.972h2.43v-2.565h-1.89a1.948,1.948,0,0,1-1.337-.365,1.582,1.582,0,0,1-.391-1.2v-8.238h3.618Zm4.4-4.484a1.875,1.875,0,0,0,1.377-.567,2.023,2.023,0,0,0,0-2.809,1.875,1.875,0,0,0-1.377-.567,1.972,1.972,0,1,0,0,3.943h0Zm-1.565,1.972v14.882h3.077V141.795h-3.077Zm12.527,15.126a7.375,7.375,0,0,0,3.01-.568,4.662,4.662,0,0,0,1.985-1.566,3.85,3.85,0,0,0,.7-2.269,3.48,3.48,0,0,0-.783-2.3,4.954,4.954,0,0,0-1.8-1.31,20.1,20.1,0,0,0-2.659-.878q-1.215-.351-1.836-0.58a3.078,3.078,0,0,1-1.053-.635,1.315,1.315,0,0,1-.432-1,1.423,1.423,0,0,1,.648-1.216,3.2,3.2,0,0,1,1.863-.459,3.029,3.029,0,0,1,1.971.594,2.194,2.194,0,0,1,.81,1.594h3.078a4.61,4.61,0,0,0-1.661-3.5,6.217,6.217,0,0,0-4.09-1.283,7.518,7.518,0,0,0-3.011.567,4.674,4.674,0,0,0-2.011,1.553,3.668,3.668,0,0,0-.7,2.175,3.467,3.467,0,0,0,.769,2.349,4.782,4.782,0,0,0,1.823,1.324,24.366,24.366,0,0,0,2.727.891,14.849,14.849,0,0,1,2.524.892,1.317,1.317,0,0,1,.8,1.242,1.509,1.509,0,0,1-.716,1.283,3.477,3.477,0,0,1-2.011.5,3.286,3.286,0,0,1-2.066-.635,2.173,2.173,0,0,1-.9-1.58H363.2a4.309,4.309,0,0,0,.864,2.444,5.516,5.516,0,0,0,2.2,1.729,7.5,7.5,0,0,0,3.146.635h0Zm16.226-12.614v-2.512h-3.618v-3.7h-3.1v3.7h-1.755v2.512h1.755v8.238a4.007,4.007,0,0,0,1.107,3.16,4.684,4.684,0,0,0,3.186.972h2.43v-2.565h-1.89a1.943,1.943,0,0,1-1.336-.365,1.582,1.582,0,0,1-.392-1.2v-8.238h3.618Z"/>
  <path id="_6_686_Machine_Learning_Engineers" data-name="6,686 Machine Learning Engineers" class="cls-2" d="M142.015,262.962h2.126a4.329,4.329,0,0,0-1.367-2.694,4.467,4.467,0,0,0-3.189-1.094q-5.225,0-5.224,7.414a15.62,15.62,0,0,0,.476,4.193,4.846,4.846,0,0,0,1.66,2.6,5.2,5.2,0,0,0,3.27.922,5.133,5.133,0,0,0,2.633-.638,4.123,4.123,0,0,0,1.65-1.752,5.592,5.592,0,0,0,.557-2.532,5.533,5.533,0,0,0-.577-2.614,4.027,4.027,0,0,0-1.6-1.671,4.715,4.715,0,0,0-2.359-.577,4.988,4.988,0,0,0-2.187.486,3.48,3.48,0,0,0-1.539,1.378,8.026,8.026,0,0,1,.831-4.062,2.649,2.649,0,0,1,2.389-1.226,2.581,2.581,0,0,1,1.64.466,2.438,2.438,0,0,1,.81,1.4h0Zm-2.45,3.5a2.663,2.663,0,0,1,2.116.82,3.219,3.219,0,0,1,.719,2.2,2.963,2.963,0,0,1-.739,2.107,2.629,2.629,0,0,1-2.015.79,2.983,2.983,0,0,1-2.238-.821,3.041,3.041,0,0,1-.8-2.218,2.661,2.661,0,0,1,.86-2.137,3.105,3.105,0,0,1,2.1-.739h0Zm7.836,5.064-1.437,5.591h1.5l2.45-5.591H147.4Zm12.17-8.569H161.7a4.334,4.334,0,0,0-1.367-2.694,4.467,4.467,0,0,0-3.189-1.094q-5.225,0-5.224,7.414a15.62,15.62,0,0,0,.476,4.193,4.846,4.846,0,0,0,1.66,2.6,5.2,5.2,0,0,0,3.27.922,5.133,5.133,0,0,0,2.633-.638,4.123,4.123,0,0,0,1.65-1.752,5.592,5.592,0,0,0,.557-2.532,5.533,5.533,0,0,0-.577-2.614,4.027,4.027,0,0,0-1.6-1.671,4.715,4.715,0,0,0-2.359-.577,4.988,4.988,0,0,0-2.187.486,3.48,3.48,0,0,0-1.539,1.378,8.038,8.038,0,0,1,.83-4.062,2.651,2.651,0,0,1,2.39-1.226,2.581,2.581,0,0,1,1.64.466,2.443,2.443,0,0,1,.81,1.4h0Zm-2.45,3.5a2.663,2.663,0,0,1,2.116.82,3.219,3.219,0,0,1,.719,2.2,2.963,2.963,0,0,1-.739,2.107,2.629,2.629,0,0,1-2.015.79,2.981,2.981,0,0,1-2.238-.821,3.042,3.042,0,0,1-.8-2.218,2.662,2.662,0,0,1,.861-2.137,3.105,3.105,0,0,1,2.1-.739h0Zm10,0.121a3.755,3.755,0,0,0-1.8,1.378,3.845,3.845,0,0,0-.669,2.268,4.13,4.13,0,0,0,.669,2.33,4.335,4.335,0,0,0,1.853,1.56,6.369,6.369,0,0,0,2.7.547,6.441,6.441,0,0,0,2.713-.547,4.323,4.323,0,0,0,1.863-1.56,4.13,4.13,0,0,0,.668-2.33,3.854,3.854,0,0,0-.668-2.258,3.724,3.724,0,0,0-1.822-1.388,3.836,3.836,0,0,0,1.529-1.327,3.5,3.5,0,0,0,.577-2,3.71,3.71,0,0,0-2.2-3.454,6.9,6.9,0,0,0-5.336,0,3.723,3.723,0,0,0-2.187,3.454,3.487,3.487,0,0,0,2.106,3.322h0Zm5.406-3.039a2.1,2.1,0,0,1-.749,1.662,3.123,3.123,0,0,1-3.8.01,2.081,2.081,0,0,1-.74-1.651,2.193,2.193,0,0,1,.709-1.763,2.858,2.858,0,0,1,1.924-.607,2.892,2.892,0,0,1,1.944.607,2.17,2.17,0,0,1,.708,1.742h0Zm-2.652,4.052a3.307,3.307,0,0,1,2.156.668,2.294,2.294,0,0,1,.82,1.884,2.409,2.409,0,0,1-.8,1.864,3.111,3.111,0,0,1-2.177.729,3.2,3.2,0,0,1-2.207-.719,2.387,2.387,0,0,1-.81-1.874,2.265,2.265,0,0,1,.84-1.894,3.432,3.432,0,0,1,2.177-.658h0Zm15.612-4.639h2.126a4.334,4.334,0,0,0-1.367-2.694,4.467,4.467,0,0,0-3.189-1.094q-5.225,0-5.225,7.414a15.661,15.661,0,0,0,.476,4.193,4.847,4.847,0,0,0,1.661,2.6,5.2,5.2,0,0,0,3.27.922,5.129,5.129,0,0,0,2.632-.638,4.132,4.132,0,0,0,1.651-1.752,6.122,6.122,0,0,0-.02-5.146,4.034,4.034,0,0,0-1.6-1.671,4.715,4.715,0,0,0-2.359-.577,4.988,4.988,0,0,0-2.187.486,3.48,3.48,0,0,0-1.539,1.378,8.038,8.038,0,0,1,.83-4.062,2.651,2.651,0,0,1,2.39-1.226,2.583,2.583,0,0,1,1.64.466,2.443,2.443,0,0,1,.81,1.4h0Zm-2.45,3.5a2.664,2.664,0,0,1,2.116.82,3.218,3.218,0,0,1,.718,2.2,2.959,2.959,0,0,1-.739,2.107,2.627,2.627,0,0,1-2.014.79,2.981,2.981,0,0,1-2.238-.821,3.042,3.042,0,0,1-.8-2.218,2.662,2.662,0,0,1,.861-2.137,3.1,3.1,0,0,1,2.1-.739h0Zm-98.8,20.77-4.921,11.041-4.941-11.041H71.883v14.079h2.308v-9.642l4.313,9.642h1.6l4.293-9.642v9.642h2.308V287.237h-2.47Zm4.738,8.448a6.359,6.359,0,0,0,.7,3.008,5.238,5.238,0,0,0,1.893,2.066,5.172,5.172,0,0,0,4.941.213,4.583,4.583,0,0,0,1.6-1.317v1.661h2.329V290.154H98.106v1.621a4.665,4.665,0,0,0-1.569-1.286,4.863,4.863,0,0,0-2.3-.517,5.088,5.088,0,0,0-4.566,2.735,6.179,6.179,0,0,0-.7,2.978h0Zm9.132,0.04a4.1,4.1,0,0,1-.476,2.016,3.323,3.323,0,0,1-1.245,1.306,3.25,3.25,0,0,1-1.661.446,3.218,3.218,0,0,1-1.65-.456,3.355,3.355,0,0,1-1.255-1.327,4.156,4.156,0,0,1-.476-2.025,3.988,3.988,0,0,1,.476-2,3.322,3.322,0,0,1,4.566-1.266,3.338,3.338,0,0,1,1.245,1.3,4.041,4.041,0,0,1,.476,2h0Zm4.6,0a6.325,6.325,0,0,0,.7,3.029,5.034,5.034,0,0,0,1.934,2.025,5.523,5.523,0,0,0,2.835.72,5.377,5.377,0,0,0,3.32-1,4.99,4.99,0,0,0,1.823-2.7h-2.491a2.562,2.562,0,0,1-2.652,1.763,2.783,2.783,0,0,1-2.258-1.013,5.123,5.123,0,0,1,0-5.622,2.8,2.8,0,0,1,2.258-1,2.864,2.864,0,0,1,1.68.466,2.628,2.628,0,0,1,.972,1.3h2.491a4.744,4.744,0,0,0-1.792-2.745,6.18,6.18,0,0,0-6.186-.253A4.973,4.973,0,0,0,103.4,292.7a6.321,6.321,0,0,0-.7,3.028h0Zm18.69-5.753a4.982,4.982,0,0,0-1.974.385,3.865,3.865,0,0,0-1.488,1.094v-5.125h-2.309v14.99h2.309v-6.239a3.213,3.213,0,0,1,.759-2.3,2.7,2.7,0,0,1,2.055-.8,2.663,2.663,0,0,1,2.045.8,3.238,3.238,0,0,1,.75,2.3v6.239h2.288v-6.583a5.419,5.419,0,0,0-.577-2.593,3.9,3.9,0,0,0-1.58-1.621,4.672,4.672,0,0,0-2.278-.547h0Zm8.545-1.3a1.406,1.406,0,0,0,1.033-.426,1.518,1.518,0,0,0,0-2.107,1.409,1.409,0,0,0-1.033-.425,1.479,1.479,0,1,0,0,2.958h0Zm-1.174,1.478v11.162h2.308V290.154h-2.308Zm10.975-.182a4.634,4.634,0,0,0-1.873.385,3.815,3.815,0,0,0-1.448,1.074v-1.277h-2.309v11.162h2.309v-6.239a3.213,3.213,0,0,1,.759-2.3,2.7,2.7,0,0,1,2.055-.8,2.666,2.666,0,0,1,2.046.8,3.242,3.242,0,0,1,.749,2.3v6.239h2.288v-6.583a5.339,5.339,0,0,0-.587-2.593,3.9,3.9,0,0,0-1.63-1.621,5,5,0,0,0-2.359-.547h0Zm17.738,5.49a5.833,5.833,0,0,0-.689-2.867,4.868,4.868,0,0,0-1.923-1.934,5.685,5.685,0,0,0-2.815-.689,5.84,5.84,0,0,0-2.906.709,4.917,4.917,0,0,0-1.964,2.016,6.321,6.321,0,0,0-.7,3.028,6.186,6.186,0,0,0,.719,3.029,5.109,5.109,0,0,0,1.985,2.025,5.687,5.687,0,0,0,2.865.72,5.374,5.374,0,0,0,3.29-.983,5.034,5.034,0,0,0,1.833-2.522h-2.491a2.7,2.7,0,0,1-2.632,1.56,3.132,3.132,0,0,1-2.187-.81,3.1,3.1,0,0,1-.992-2.148H157.4a7.33,7.33,0,0,0,.081-1.134h0Zm-8.586-.729a3.176,3.176,0,0,1,1.012-2.057,2.967,2.967,0,0,1,2.046-.759,3.254,3.254,0,0,1,2.207.77,2.629,2.629,0,0,1,.911,2.046H148.89Zm18.426-7.5h-2.308v14.079h7.067v-1.863h-4.759V287.237Zm16.908,8.225a5.832,5.832,0,0,0-.688-2.867,4.871,4.871,0,0,0-1.924-1.934,5.679,5.679,0,0,0-2.814-.689,5.838,5.838,0,0,0-2.906.709,4.911,4.911,0,0,0-1.964,2.016,6.321,6.321,0,0,0-.7,3.028,6.175,6.175,0,0,0,.719,3.029,5.107,5.107,0,0,0,1.984,2.025,5.693,5.693,0,0,0,2.866.72,5.374,5.374,0,0,0,3.29-.983,5.034,5.034,0,0,0,1.833-2.522H181.43a2.7,2.7,0,0,1-2.632,1.56,3.129,3.129,0,0,1-2.187-.81,3.1,3.1,0,0,1-.993-2.148h8.525a7.208,7.208,0,0,0,.081-1.134h0Zm-8.585-.729a3.176,3.176,0,0,1,1.012-2.057,2.966,2.966,0,0,1,2.045-.759,3.252,3.252,0,0,1,2.207.77,2.63,2.63,0,0,1,.912,2.046h-6.176Zm10.084,0.952a6.355,6.355,0,0,0,.7,3.008,5.245,5.245,0,0,0,1.893,2.066,5.172,5.172,0,0,0,4.941.213,4.586,4.586,0,0,0,1.6-1.317v1.661h2.329V290.154h-2.329v1.621a4.672,4.672,0,0,0-1.569-1.286,4.864,4.864,0,0,0-2.3-.517,5.09,5.09,0,0,0-4.566,2.735,6.175,6.175,0,0,0-.7,2.978h0Zm9.132,0.04a4.1,4.1,0,0,1-.476,2.016,3.319,3.319,0,0,1-1.245,1.306,3.264,3.264,0,0,1-3.311-.01,3.353,3.353,0,0,1-1.255-1.327,4.148,4.148,0,0,1-.476-2.025,3.981,3.981,0,0,1,.476-2,3.322,3.322,0,0,1,4.566-1.266,3.334,3.334,0,0,1,1.245,1.3,4.043,4.043,0,0,1,.476,2h0Zm7.674-3.95v-1.621h-2.308v11.162h2.308v-5.874a3.294,3.294,0,0,1,.7-2.391,2.812,2.812,0,0,1,2.055-.689h0.587v-2.39a3.984,3.984,0,0,0-1.994.476,3.639,3.639,0,0,0-1.347,1.327h0Zm11.1-1.8a4.634,4.634,0,0,0-1.873.385,3.815,3.815,0,0,0-1.448,1.074v-1.277H208v11.162h2.309v-6.239a3.213,3.213,0,0,1,.759-2.3,2.7,2.7,0,0,1,2.055-.8,2.666,2.666,0,0,1,2.046.8,3.242,3.242,0,0,1,.749,2.3v6.239H218.2v-6.583a5.339,5.339,0,0,0-.587-2.593,3.9,3.9,0,0,0-1.63-1.621,5,5,0,0,0-2.359-.547h0Zm8.686-1.3a1.406,1.406,0,0,0,1.033-.426,1.518,1.518,0,0,0,0-2.107,1.409,1.409,0,0,0-1.033-.425,1.479,1.479,0,1,0,0,2.958h0Zm-1.174,1.478v11.162h2.308V290.154h-2.308Zm10.975-.182a4.634,4.634,0,0,0-1.873.385,3.823,3.823,0,0,0-1.448,1.074v-1.277h-2.309v11.162h2.309v-6.239a3.213,3.213,0,0,1,.759-2.3,2.7,2.7,0,0,1,2.056-.8,2.666,2.666,0,0,1,2.045.8,3.242,3.242,0,0,1,.749,2.3v6.239h2.288v-6.583a5.339,5.339,0,0,0-.587-2.593,3.9,3.9,0,0,0-1.63-1.621,5,5,0,0,0-2.359-.547h0Zm12.007,0a5.09,5.09,0,0,0-4.566,2.735,6.176,6.176,0,0,0-.7,2.978,6.356,6.356,0,0,0,.7,3.008,5.212,5.212,0,0,0,1.9,2.066,4.988,4.988,0,0,0,2.662.74,4.757,4.757,0,0,0,2.278-.537,4.7,4.7,0,0,0,1.59-1.327V301.5a3.323,3.323,0,0,1-.861,2.471,3.073,3.073,0,0,1-2.258.851,3.8,3.8,0,0,1-2.055-.537,2.486,2.486,0,0,1-1.124-1.408H239.4a3.926,3.926,0,0,0,1.7,2.887,6.346,6.346,0,0,0,3.766,1.063,5.889,5.889,0,0,0,2.926-.688,4.694,4.694,0,0,0,1.874-1.895,5.712,5.712,0,0,0,.648-2.744V290.154h-2.329v1.621a4.412,4.412,0,0,0-1.569-1.286,4.944,4.944,0,0,0-2.3-.517h0Zm3.868,5.753a4.1,4.1,0,0,1-.476,2.016,3.319,3.319,0,0,1-1.245,1.306,3.251,3.251,0,0,1-1.661.446,3.216,3.216,0,0,1-1.65-.456,3.355,3.355,0,0,1-1.256-1.327,4.159,4.159,0,0,1-.475-2.025,3.991,3.991,0,0,1,.475-2,3.323,3.323,0,0,1,4.567-1.266,3.334,3.334,0,0,1,1.245,1.3,4.043,4.043,0,0,1,.476,2h0ZM120.622,316.111v-1.884h-7.775v14.1h7.775v-1.884h-5.467v-4.315h4.86v-1.883h-4.86v-4.133h5.467Zm8.464,0.871a4.641,4.641,0,0,0-1.873.385,3.819,3.819,0,0,0-1.447,1.074v-1.277h-2.309v11.162h2.309v-6.239a3.213,3.213,0,0,1,.759-2.3,2.7,2.7,0,0,1,2.055-.8,2.663,2.663,0,0,1,2.045.8,3.238,3.238,0,0,1,.75,2.3v6.239h2.288v-6.583a5.339,5.339,0,0,0-.587-2.593,3.891,3.891,0,0,0-1.631-1.621,5,5,0,0,0-2.359-.547h0Zm12.008,0a5.087,5.087,0,0,0-4.566,2.735,6.176,6.176,0,0,0-.7,2.978,6.353,6.353,0,0,0,.7,3.008,5.21,5.21,0,0,0,1.9,2.066,4.992,4.992,0,0,0,2.663.74,4.8,4.8,0,0,0,3.868-1.864v1.864a3.323,3.323,0,0,1-.861,2.471,3.073,3.073,0,0,1-2.258.851,3.8,3.8,0,0,1-2.055-.537,2.482,2.482,0,0,1-1.124-1.408h-2.288a3.924,3.924,0,0,0,1.7,2.887,6.346,6.346,0,0,0,3.766,1.063,5.892,5.892,0,0,0,2.926-.688,4.686,4.686,0,0,0,1.873-1.9,5.7,5.7,0,0,0,.648-2.744V317.164h-2.328v1.621a4.425,4.425,0,0,0-1.57-1.286,4.937,4.937,0,0,0-2.3-.517h0Zm3.868,5.753a4.1,4.1,0,0,1-.476,2.016,3.322,3.322,0,0,1-1.246,1.306,3.247,3.247,0,0,1-1.66.446,3.214,3.214,0,0,1-1.65-.456,3.355,3.355,0,0,1-1.256-1.327,4.159,4.159,0,0,1-.476-2.025,3.992,3.992,0,0,1,.476-2,3.322,3.322,0,0,1,4.566-1.266,3.343,3.343,0,0,1,1.246,1.3,4.043,4.043,0,0,1,.476,2h0Zm6.54-7.049a1.406,1.406,0,0,0,1.033-.426,1.518,1.518,0,0,0,0-2.107,1.409,1.409,0,0,0-1.033-.425,1.479,1.479,0,1,0,0,2.958h0Zm-1.175,1.478v11.162h2.309V317.164h-2.309Zm10.975-.182a4.641,4.641,0,0,0-1.873.385,3.83,3.83,0,0,0-1.448,1.074v-1.277h-2.308v11.162h2.308v-6.239a3.214,3.214,0,0,1,.76-2.3,2.7,2.7,0,0,1,2.055-.8,2.663,2.663,0,0,1,2.045.8,3.238,3.238,0,0,1,.75,2.3v6.239h2.288v-6.583a5.328,5.328,0,0,0-.588-2.593,3.883,3.883,0,0,0-1.63-1.621,5,5,0,0,0-2.359-.547h0Zm17.738,5.49a5.832,5.832,0,0,0-.688-2.867,4.864,4.864,0,0,0-1.924-1.934,5.679,5.679,0,0,0-2.814-.689,5.848,5.848,0,0,0-2.906.709,4.911,4.911,0,0,0-1.964,2.016,6.321,6.321,0,0,0-.7,3.028,6.186,6.186,0,0,0,.719,3.029,5.114,5.114,0,0,0,1.984,2.025,5.693,5.693,0,0,0,2.866.72,5.374,5.374,0,0,0,3.29-.983A5.03,5.03,0,0,0,178.737,325h-2.491a2.7,2.7,0,0,1-2.632,1.56,3.132,3.132,0,0,1-2.187-.81,3.1,3.1,0,0,1-.992-2.148h8.524a7.208,7.208,0,0,0,.081-1.134h0Zm-8.585-.729a3.176,3.176,0,0,1,1.012-2.057,2.966,2.966,0,0,1,2.045-.759,3.256,3.256,0,0,1,2.208.77,2.633,2.633,0,0,1,.911,2.046h-6.176Zm21.079,0.729a5.843,5.843,0,0,0-.688-2.867,4.877,4.877,0,0,0-1.924-1.934,5.685,5.685,0,0,0-2.815-.689,5.854,5.854,0,0,0-2.906.709,4.923,4.923,0,0,0-1.964,2.016,6.333,6.333,0,0,0-.7,3.028,6.175,6.175,0,0,0,.719,3.029,5.107,5.107,0,0,0,1.984,2.025,5.692,5.692,0,0,0,2.865.72,5.38,5.38,0,0,0,3.291-.983A5.022,5.022,0,0,0,191.23,325h-2.49a2.7,2.7,0,0,1-2.633,1.56,3.132,3.132,0,0,1-2.187-.81,3.1,3.1,0,0,1-.992-2.148h8.525a7.208,7.208,0,0,0,.081-1.134h0Zm-8.586-.729a3.177,3.177,0,0,1,1.013-2.057,2.964,2.964,0,0,1,2.045-.759,3.254,3.254,0,0,1,2.207.77,2.626,2.626,0,0,1,.911,2.046h-6.176Zm13.162-2.958v-1.621H193.8v11.162h2.308v-5.874a3.294,3.294,0,0,1,.7-2.391,2.809,2.809,0,0,1,2.055-.689h0.587v-2.39a3.984,3.984,0,0,0-1.994.476,3.625,3.625,0,0,0-1.347,1.327h0Zm9.517,9.724a5.54,5.54,0,0,0,2.258-.426,3.484,3.484,0,0,0,1.488-1.175,2.885,2.885,0,0,0,.527-1.7,2.6,2.6,0,0,0-.588-1.722,3.723,3.723,0,0,0-1.346-.983,14.965,14.965,0,0,0-2-.658q-0.911-.262-1.377-0.436a2.281,2.281,0,0,1-.789-0.476,0.985,0.985,0,0,1-.324-0.749,1.068,1.068,0,0,1,.486-0.912,2.4,2.4,0,0,1,1.4-.344,2.276,2.276,0,0,1,1.478.445,1.647,1.647,0,0,1,.607,1.2h2.309a3.457,3.457,0,0,0-1.245-2.624,4.666,4.666,0,0,0-3.068-.962,5.645,5.645,0,0,0-2.258.425,3.509,3.509,0,0,0-1.509,1.165,2.75,2.75,0,0,0-.526,1.631,2.6,2.6,0,0,0,.577,1.762,3.581,3.581,0,0,0,1.367.993,18.137,18.137,0,0,0,2.045.668,11.215,11.215,0,0,1,1.893.669,0.989,0.989,0,0,1,.6.932,1.13,1.13,0,0,1-.537.962,2.608,2.608,0,0,1-1.508.375,2.466,2.466,0,0,1-1.55-.476,1.632,1.632,0,0,1-.678-1.185H200.97a3.232,3.232,0,0,0,.648,1.833,4.15,4.15,0,0,0,1.65,1.3,5.622,5.622,0,0,0,2.359.476h0Z"/>
</svg>
