<svg id="logo_copy" data-name="logo copy" xmlns="http://www.w3.org/2000/svg" width="500" height="101.68" viewBox="0 0 12500 2542">
  <defs>
    <style>
      .cls-1, .cls-2, .cls-3 {
        fill-rule: evenodd;
      }

      .cls-2, .cls-3 {
        stroke: #fff;
        stroke-width: 1px;
      }

      .cls-3 {
        fill: #f0b911;
      }
    </style>
  </defs>
  <path id="TRUESK_LL" data-name="TRUESK LL" class="cls-1" d="M1403.86,1086.32H121.229v237.02H644.491V2393.56H881.508V1323.34H1403.86V1086.32Zm1499.11,288.07q0-43.755-15.04-93.89t-49.23-93.44q-34.185-43.29-88.88-72.02-54.69-28.71-134-28.72H1716.06a122.136,122.136,0,0,0-47.4,9.12,112.383,112.383,0,0,0-37.83,25.52,121.1,121.1,0,0,0-25.07,38.29,119.617,119.617,0,0,0-9.12,46.49V2393.56h237.02V1323.34h782.16a155.588,155.588,0,0,1,15.95.91,37.129,37.129,0,0,1,16.41,5.93c5.16,3.34,9.41,8.52,12.76,15.49q5.01,10.5,5.02,30.54v149.51q0,46.485-14.59,82.5a173.462,173.462,0,0,1-41.48,61.53q-26.895,25.53-63.81,40.57T2464.49,1729H1928.47v237.02h170.47l494.09,427.54h366.46l-495-427.54q43.755,0,93.44-10.03a448.921,448.921,0,0,0,98.45-32.36,474.534,474.534,0,0,0,93.44-56.97,382.57,382.57,0,0,0,78.86-83.41q34.185-48.765,54.24-112.59,20.04-63.795,20.05-144.94V1374.39Zm1537.41-288.07H4203.36V2156.55h-416.6q-10.95,0-46.04-3.19t-81.13-15.96q-46.05-12.75-97.09-39.2-51.06-26.415-93.89-72.92-42.87-46.5-70.65-115.78-27.825-69.27-27.81-169.56V1086.32H3133.14v653.62q0,114.87,27.34,208.31,27.36,93.45,75.21,165.91t111.67,125.34a642.333,642.333,0,0,0,136.29,87.06,680.993,680.993,0,0,0,149.96,50.6,737.4,737.4,0,0,0,153.15,16.4h534.2a119.61,119.61,0,0,0,46.49-9.11,121.1,121.1,0,0,0,38.29-25.07,112.581,112.581,0,0,0,25.52-37.83,122.15,122.15,0,0,0,9.12-47.41V1086.32Zm1368.75,534.2H5060.71v238.84h748.42V1620.52Zm106.66,536.03H5062.53q-47.415,0-72.02-24.62-24.615-24.6-24.61-71.1V1323.34h949.89V1086.32H4848.3a122.1,122.1,0,0,0-47.4,9.12,112.383,112.383,0,0,0-37.83,25.52,120.934,120.934,0,0,0-25.07,38.29,119.435,119.435,0,0,0-9.12,46.49v855.09q0,92.085,33.27,155.43t82.96,103.01q49.68,39.66,108.03,56.97,58.32,17.34,107.57,17.32h855.08V2156.55Zm1481.8-273.48q-17.34-55.6-46.95-98.46a341.891,341.891,0,0,0-67.92-73.38,411.521,411.521,0,0,0-80.67-50.6,406.777,406.777,0,0,0-85.24-29.62q-42.855-9.57-81.13-10.49H6488.72q-67.485,0-105.29-39.65-37.845-39.66-37.84-108.03,0-67.44,37.84-108.48,37.815-41.025,105.29-41.02h806.77V1086.32H6488.72q-57.435,0-123.98,20.51t-123.52,66.55q-56.985,46.05-94.81,119.42-37.845,73.4-37.83,180.04,0,106.665,37.83,180.5t94.81,119.42q56.955,45.6,123.52,66.09,66.525,20.52,123.98,20.51h545.14q32.8,0,59.71,10.94a126.99,126.99,0,0,1,45.58,31,138.868,138.868,0,0,1,28.71,47.4q10.02,27.345,10.03,60.17,0,67.47-37.83,107.57-37.845,40.125-106.2,40.11H6119.52v237.01h914.34q38.28,0,81.58-9.11a406.45,406.45,0,0,0,85.24-28.26,419.315,419.315,0,0,0,81.13-49.23,313.064,313.064,0,0,0,68.37-72.93q29.175-42.825,46.95-98.91,17.775-56.055,17.78-126.25T7397.59,1883.07Zm931.18-143.13,671.85-653.62H8664.24l-533.29,534.2H7964.13v238.84h166.82l533.29,534.2h336.38Zm-459.45-653.62H7632.31V2393.56h237.01V1086.32ZM10984.2,2156.55h-963.5V1086.32H9783.66V2274.14a121.963,121.963,0,0,0,9.11,47.41,114.135,114.135,0,0,0,62.9,62.9,121.963,121.963,0,0,0,47.41,9.11H10984.2V2156.55Zm1393.4,0H11414V1086.32h-237V2274.14a123.436,123.436,0,0,0,9.1,47.41,114.383,114.383,0,0,0,62.9,62.9,122.056,122.056,0,0,0,47.4,9.11h1081.2V2156.55Z"/>
  <path id="Rounded_Rectangle_4" data-name="Rounded Rectangle 4" class="cls-2" d="M9198.54,1034.97h268.84V2379.19H9199.54a1,1,0,0,1-1-1V1034.97Z"/>
  <path class="cls-3" d="M9332.96,123.89c156.73,0,283.78,127.051,283.78,283.776s-127.05,283.782-283.78,283.782S9049.18,564.4,9049.18,407.666,9176.23,123.89,9332.96,123.89Z"/>
</svg>
