<?xml version="1.0" encoding="UTF-8" standalone="no"?>
<!DOCTYPE svg PUBLIC "-//W3C//DTD SVG 1.1//EN" "http://www.w3.org/Graphics/SVG/1.1/DTD/svg11.dtd">
<svg width="100%" height="100%" viewBox="0 0 1920 1080" version="1.1" xmlns="http://www.w3.org/2000/svg" xmlns:xlink="http://www.w3.org/1999/xlink" xml:space="preserve" xmlns:serif="http://www.serif.com/" style="fill-rule:evenodd;clip-rule:evenodd;stroke-linejoin:round;stroke-miterlimit:2;">
    <g transform="matrix(2.70629,-0.517822,0.517822,2.70629,-300.523,821.149)">
        <path d="M175.321,51.06L175.321,51.225L120.333,51.225C114.055,51.225 108.911,46.402 108.383,40.261C108.354,40.604 108.331,40.949 108.331,41.3C108.331,47.928 113.704,53.302 120.333,53.302L175.321,53.302L175.321,53.137C181.044,52.223 185.422,47.279 185.422,41.3C185.422,40.967 185.399,40.64 185.372,40.314C184.877,45.795 180.692,50.202 175.321,51.06Z" style="fill:rgb(127,191,206);fill-rule:nonzero;"/>
        <path d="M185.424,39.689C185.424,40.041 185.403,40.394 185.369,40.74L185.341,41C184.739,46.144 180.605,50.257 175.321,51.069L175.321,51.222L120.335,51.222C114.159,51.222 109.083,46.743 108.418,40.98C108.404,40.88 108.391,40.787 108.384,40.687C108.356,40.354 108.328,40.028 108.328,39.689C108.328,33.319 113.702,28.155 120.335,28.155C121.457,28.155 122.544,28.314 123.576,28.587C123.666,22.292 128.998,17.213 135.569,17.213C139.363,17.213 142.742,18.918 144.944,21.56C147.555,17.121 152.513,14.119 158.197,14.119C166.396,14.119 173.078,20.348 173.403,28.155L173.417,28.155C180.051,28.155 185.424,33.319 185.424,39.689Z" style="fill:rgb(184,228,240);fill-rule:nonzero;"/>
        <path d="M185.341,41.773C184.739,46.529 180.605,50.33 175.321,51.081L175.321,51.222L120.335,51.222C114.159,51.222 109.083,47.082 108.418,41.755C109.118,36.465 114.187,32.362 120.335,32.362C121.457,32.362 122.544,32.51 123.576,32.762C123.666,26.942 128.998,22.249 135.569,22.249C139.363,22.249 142.742,23.824 144.944,26.266C147.555,22.163 152.513,19.389 158.197,19.389C166.396,19.389 173.078,25.147 173.403,32.362L173.417,32.362C179.573,32.362 184.648,36.477 185.341,41.773Z" style="fill:rgb(167,219,233);fill-rule:nonzero;"/>
        <path d="M128.682,34.302L128.682,52.495L124.7,52.495L134.507,62.302L144.316,52.495L140.333,52.495L140.333,34.302L128.682,34.302Z" style="fill:rgb(34,189,190);fill-rule:nonzero;"/>
        <path d="M165.316,60.636L165.316,42.443L169.298,42.443L159.491,32.636L149.682,42.443L153.665,42.443L153.665,60.636L165.316,60.636Z" style="fill:rgb(206,32,49);fill-rule:nonzero;"/>
    </g>
    <g transform="matrix(3.11123,0.746243,-0.746243,3.11123,-147.871,-692.765)">
        <path d="M140.297,243.723L108.308,243.723L108.309,224.079L140.298,224.08L140.297,243.723Z" style="fill:rgb(245,206,38);fill-rule:nonzero;"/>
        <path d="M124.303,238.295L108.309,224.079L140.298,224.08L124.303,238.295Z" style="fill:rgb(200,180,46);fill-rule:nonzero;"/>
        <path d="M124.303,236.218L108.309,224.079L140.298,224.08L124.303,236.218Z" style="fill:rgb(248,215,73);fill-rule:nonzero;"/>
        <path d="M182.777,243.575L150.788,243.574L150.789,223.93L182.778,223.931L182.777,243.575Z" style="fill:rgb(245,206,38);fill-rule:nonzero;"/>
        <path d="M166.783,238.147L150.789,223.93L182.778,223.931L166.783,238.147Z" style="fill:rgb(200,180,46);fill-rule:nonzero;"/>
        <path d="M166.783,236.07L150.789,223.93L182.778,223.931L166.783,236.07Z" style="fill:rgb(248,215,73);fill-rule:nonzero;"/>
        <path d="M161.983,272.093L129.994,272.092L129.994,252.448L161.983,252.449L161.983,272.093Z" style="fill:rgb(245,206,38);fill-rule:nonzero;"/>
        <path d="M145.988,266.666L129.994,252.448L161.983,252.449L145.988,266.666Z" style="fill:rgb(200,180,46);fill-rule:nonzero;"/>
        <path d="M145.988,264.588L129.994,252.448L161.983,252.449L145.988,264.588Z" style="fill:rgb(248,215,73);fill-rule:nonzero;"/>
        <path d="M167.293,247.393L124.251,247.393C123.451,247.393 122.801,246.743 122.801,245.942L122.801,237.72C122.801,236.919 123.451,236.269 124.251,236.269C125.053,236.269 125.703,236.919 125.703,237.72L125.703,244.491L165.842,244.491L165.842,237.72C165.842,236.919 166.492,236.269 167.293,236.269C168.094,236.269 168.744,236.919 168.744,237.72L168.744,245.942C168.744,246.743 168.094,247.393 167.293,247.393Z" style="fill:rgb(19,64,94);fill-rule:nonzero;"/>
        <path d="M145.772,259.483C144.971,259.483 144.321,258.833 144.321,258.032L144.321,245.942C144.321,245.141 144.971,244.491 145.772,244.491C146.574,244.491 147.223,245.141 147.223,245.942L147.223,258.032C147.223,258.833 146.574,259.483 145.772,259.483Z" style="fill:rgb(19,64,94);fill-rule:nonzero;"/>
        <path d="M127.425,237.055C127.425,238.891 125.937,240.38 124.101,240.38C122.264,240.38 120.776,238.891 120.776,237.055C120.776,235.219 122.264,233.731 124.101,233.731C125.937,233.731 127.425,235.219 127.425,237.055Z" style="fill:rgb(34,189,190);fill-rule:nonzero;"/>
        <path d="M170.769,237.055C170.769,238.891 169.28,240.38 167.444,240.38C165.608,240.38 164.119,238.891 164.119,237.055C164.119,235.219 165.608,233.731 167.444,233.731C169.28,233.731 170.769,235.219 170.769,237.055Z" style="fill:rgb(34,189,190);fill-rule:nonzero;"/>
        <path d="M149.097,258.819C149.097,260.655 147.608,262.142 145.772,262.142C143.936,262.142 142.447,260.655 142.447,258.819C142.447,256.981 143.936,255.493 145.772,255.493C147.608,255.493 149.097,256.981 149.097,258.819Z" style="fill:rgb(34,189,190);fill-rule:nonzero;"/>
        <path d="M158.858,293.971C158.76,294.032 158.419,293.971 158.309,293.97L157.247,293.968C156.17,293.967 156.318,294.377 155.245,294.374C153.018,294.368 150.803,294.009 148.581,294.06C146.559,294.105 145.729,292.656 144.627,291.049C142.823,288.418 139.895,285.876 139.257,282.661C139.004,281.39 138.613,279.959 138.59,278.67C138.572,277.589 138.759,276.571 138.573,275.47C138.398,274.43 137.475,272.413 139.237,272.703C139.684,272.776 140.416,272.971 140.779,273.26C141.45,273.793 141.928,274.877 142.1,275.708C142.24,276.379 142.06,277.043 142.202,277.706C142.38,278.543 142.868,279.415 143.285,280.154C143.567,277.962 143.571,276.119 143.506,273.915C143.508,272.123 143.51,270.331 143.512,268.539C143.516,265.987 143.519,263.434 143.522,260.882L143.522,260.836C143.524,260.351 143.479,259.836 143.526,259.354C143.544,259.17 143.641,259.009 143.771,258.869L143.878,258.76L143.894,258.746L144.161,258.537C144.971,257.955 146.055,257.951 146.88,258.517C146.972,258.578 147.06,258.643 147.141,258.712L147.156,258.725C147.259,258.815 147.349,258.912 147.417,259.022C147.495,259.148 147.545,259.293 147.55,259.457C147.557,259.733 147.548,260 147.549,260.276C147.544,262.023 147.527,263.771 147.518,265.518C147.511,266.71 147.446,267.92 147.503,269.109C147.555,270.177 147.621,271.889 147.969,272.333C147.95,272.058 148.147,271.653 148.146,271.327C148.143,270.982 148.138,270.636 148.137,270.291C148.136,269.682 148.013,268.842 148.24,268.262C148.65,267.239 150.343,267.039 151.179,267.602C152.056,268.193 152.039,269.486 152.145,270.413C152.176,270.685 152.479,271.716 152.655,271.305C152.993,270.518 153.141,269.008 153.499,268.567C154.172,267.735 155.44,267.776 156.25,268.37C157.43,269.234 157.175,271.292 157.156,272.558C157.406,272.364 157.425,271.431 157.662,271.177C158.009,270.806 158.649,270.616 159.146,270.648C161.242,270.786 160.84,273.272 160.979,274.738C161.231,277.376 161.208,280.04 160.914,282.673C160.772,283.935 160.646,285.3 160.303,286.523C160,287.602 159.147,288.47 158.945,289.588C158.778,290.513 158.918,291.587 158.915,292.524C158.914,293.015 158.911,293.42 158.911,293.588C158.911,293.736 158.956,293.91 158.858,293.971Z" style="fill:rgb(231,176,136);fill-rule:nonzero;"/>
        <path d="M145.779,262.147C144.884,262.274 144.101,261.397 144.035,260.194L143.983,259.19L143.982,258.938L144.25,258.729C145.059,258.147 146.144,258.142 146.968,258.711C147.061,258.769 147.148,258.836 147.229,258.905L147.244,258.918L147.285,259.72C147.348,260.923 146.668,262.013 145.779,262.147Z" style="fill:rgb(243,197,166);fill-rule:nonzero;"/>
        <path d="M160.05,291.629L144.727,291.657L144.668,295.088L159.992,295.06L160.05,291.629Z" style="fill:rgb(42,68,93);fill-rule:nonzero;"/>
    </g>
    <g transform="matrix(3.11103,-1.33198,1.33198,3.11103,433.023,383.089)">
        <path d="M363.682,155.998L358.086,155.262L352.492,155.998L352.105,158.19L364.068,158.19L363.682,155.998Z" style="fill:rgb(144,164,174);fill-rule:nonzero;"/>
        <path d="M364.068,158.19L352.105,158.19L350.956,164.716L365.218,164.716L364.068,158.19Z" style="fill:rgb(176,190,197);fill-rule:nonzero;"/>
        <path d="M371.363,166.894L370.683,165.856C369.882,165.328 365.298,165.033 365.298,165.033L365.274,165.032L365.218,164.716L350.956,164.716L350.899,165.032L350.875,165.033C350.875,165.033 346.291,165.328 345.49,165.856L344.81,166.894C344.531,167.079 344.816,167.392 345.261,167.392L370.913,167.392C371.358,167.392 371.643,167.079 371.363,166.894Z" style="fill:rgb(207,216,220);fill-rule:nonzero;"/>
        <path d="M388.131,117.794L328.042,117.794C327.912,117.794 327.806,117.9 327.806,118.029L327.806,155.963C327.806,156.093 327.912,156.199 328.042,156.199L388.132,156.199C388.262,156.199 388.368,156.093 388.368,155.963L388.368,118.03C388.368,117.9 388.262,117.794 388.131,117.794Z" style="fill:rgb(207,216,220);fill-rule:nonzero;"/>
        <rect x="331.056" y="120.453" width="54.062" height="33.087" style="fill:rgb(104,120,123);fill-rule:nonzero;"/>
        <path d="M384.162,121.102L331.848,121.102L331.848,152.717L384.162,152.717L384.162,121.102Z" style="fill:rgb(42,68,93);fill-rule:nonzero;"/>
        <path d="M384.162,152.717L331.848,152.717L331.848,121.58L384.162,152.492L384.162,152.717Z" style="fill:rgb(49,81,111);fill-rule:nonzero;"/>
        <path d="M371.764,118.158C371.614,118.264 371.457,118.352 371.296,118.432C369.745,119.205 367.82,118.754 366.791,117.293C365.658,115.681 366.043,113.455 367.657,112.319C367.797,112.22 367.944,112.137 368.093,112.061C369.651,111.267 371.594,111.712 372.629,113.185C373.764,114.796 373.376,117.023 371.764,118.158ZM377.003,115.715L376.802,113.485L375.124,113.353C374.998,112.992 375.644,111.555 375.441,111.214L375.595,110.93L374.008,109.351L372.652,110.318C372.31,110.115 371.951,109.948 371.578,109.82L371.441,108.17L369.21,107.979L368.797,109.579C368.406,109.642 368.019,109.746 367.641,109.891L366.485,108.725L366.432,108.762L364.653,110.013L365.363,111.501C365.099,111.808 364.871,112.139 364.68,112.486L363.043,112.337L362.469,114.501L363.98,115.189C363.976,115.584 364.013,115.98 364.091,116.372L362.73,117.316L363.682,119.342L365.297,118.895C365.55,119.2 365.83,119.475 366.13,119.715L365.69,121.33L367.721,122.272L368.68,120.878C369.059,120.946 369.445,120.978 369.832,120.971L370.539,122.503L372.7,121.919L372.617,121.056L372.536,120.227C372.697,120.134 372.856,120.035 373.009,119.927C373.172,119.812 373.327,119.691 373.474,119.564L375.006,120.287L376.286,118.45L375.075,117.258C375.211,116.899 375.308,116.525 375.37,116.147L377.003,115.715Z" style="fill:rgb(45,191,200);fill-rule:nonzero;"/>
        <path d="M386.144,118.259C386.003,118.378 385.855,118.479 385.703,118.573C384.227,119.484 382.27,119.21 381.113,117.848C379.837,116.346 380.02,114.094 381.523,112.816C381.655,112.705 381.792,112.609 381.935,112.52C383.414,111.587 385.389,111.855 386.554,113.227C387.831,114.729 387.647,116.982 386.144,118.259ZM391.14,115.351L390.738,113.148L389.053,113.169C388.896,112.82 388.7,112.483 388.466,112.163L389.303,110.713L387.58,109.284L386.317,110.371C385.958,110.199 385.584,110.066 385.202,109.972L384.916,108.34L382.676,108.353L382.411,109.984C382.027,110.082 381.651,110.221 381.288,110.4L380.03,109.343L379.981,109.385L378.323,110.792L379.165,112.21C378.93,112.539 378.733,112.89 378.575,113.253L376.931,113.253L376.556,115.459L378.122,116.007C378.154,116.401 378.227,116.793 378.341,117.175L377.071,118.239L378.202,120.17L379.77,119.579C380.05,119.86 380.353,120.108 380.674,120.32L380.382,121.968L382.491,122.722L383.319,121.246C383.703,121.28 384.09,121.277 384.474,121.235L385.318,122.697L387.417,121.919L387.255,121.067L387.1,120.249C387.251,120.142 387.401,120.028 387.544,119.907C387.696,119.778 387.838,119.643 387.974,119.503L389.566,120.084L390.673,118.139L389.359,117.062C389.462,116.692 389.525,116.311 389.552,115.928L391.14,115.351Z" style="fill:rgb(238,52,75);fill-rule:nonzero;"/>
        <path d="M381.977,133.444C381.772,133.588 381.557,133.707 381.339,133.816C379.226,134.869 376.606,134.255 375.204,132.265C373.661,130.07 374.187,127.039 376.382,125.492C376.575,125.357 376.774,125.244 376.977,125.141C379.098,124.059 381.745,124.665 383.155,126.67C384.701,128.865 384.173,131.897 381.977,133.444ZM389.112,130.117L388.838,127.08L386.551,126.9C386.38,126.408 386.157,125.927 385.879,125.463L387.194,123.6L385.033,121.45L383.186,122.767C382.72,122.49 382.231,122.263 381.723,122.088L381.537,119.84L378.499,119.582L377.936,121.76C377.404,121.846 376.876,121.987 376.362,122.186L374.787,120.597L374.715,120.648L372.292,122.352L373.259,124.378C372.9,124.796 372.589,125.247 372.331,125.72L370.1,125.516L369.319,128.462L371.375,129.399C371.37,129.938 371.42,130.477 371.528,131.011L369.674,132.296L370.97,135.056L373.169,134.447C373.514,134.862 373.895,135.237 374.304,135.564L373.705,137.763L376.47,139.046L377.777,137.147C378.292,137.24 378.818,137.284 379.344,137.274L380.308,139.361L383.25,138.565L383.138,137.39L383.028,136.26C383.247,136.135 383.463,135.999 383.673,135.852C383.894,135.696 384.104,135.531 384.305,135.358L386.392,136.342L388.134,133.84L386.486,132.218C386.67,131.729 386.803,131.219 386.887,130.704L389.112,130.117Z" style="fill:rgb(245,206,38);fill-rule:nonzero;"/>
        <path d="M376.327,142.341L376.328,171.108C376.328,172.963 377.619,174.481 379.196,174.481L395.939,174.481C397.517,174.481 398.807,172.962 398.807,171.108L398.807,142.341C398.806,140.486 397.516,138.968 395.938,138.968L379.195,138.968C377.618,138.968 376.327,140.486 376.327,142.341Z" style="fill:rgb(176,190,197);fill-rule:nonzero;"/>
        <path d="M379.378,142.877L379.029,142.877L379.029,167.279L396.105,167.279L396.105,142.878L379.378,142.877Z" style="fill:rgb(42,68,93);fill-rule:nonzero;"/>
        <path d="M387.515,170.107C388.388,170.107 389.096,170.814 389.096,171.687C389.096,172.56 388.388,173.268 387.515,173.268C386.642,173.268 385.934,172.56 385.934,171.688C385.934,170.814 386.642,170.107 387.515,170.107Z" style="fill:rgb(216,224,231);fill-rule:nonzero;"/>
        <path d="M386.672,140.915C386.501,140.913 386.364,140.774 386.366,140.602C386.366,140.431 386.506,140.293 386.677,140.294L389.6,140.309L389.602,140.309C389.773,140.311 389.91,140.45 389.909,140.621C389.909,140.793 389.768,140.931 389.597,140.93L386.673,140.915L386.672,140.915Z" style="fill:rgb(146,148,151);fill-rule:nonzero;"/>
        <path d="M385.256,141.907C385.085,141.905 384.948,141.766 384.949,141.594C384.95,141.422 385.089,141.285 385.261,141.286L390.477,141.312L390.478,141.312C390.649,141.314 390.787,141.452 390.786,141.624C390.785,141.795 390.645,141.934 390.473,141.933L385.257,141.907L385.256,141.907Z" style="fill:rgb(146,148,151);fill-rule:nonzero;"/>
        <path d="M382.917,140.47C383.333,140.47 383.669,140.808 383.669,141.224C383.669,141.64 383.333,141.978 382.917,141.978C382.5,141.978 382.163,141.64 382.163,141.224C382.163,140.808 382.5,140.47 382.917,140.47Z" style="fill:rgb(146,148,151);fill-rule:nonzero;"/>
        <path d="M366.358,125.247L340.248,125.247L340.248,150.113L358.638,150.113L366.358,144.031L366.358,125.247Z" style="fill:rgb(34,189,190);fill-rule:nonzero;"/>
        <path d="M364.768,126.761L341.836,126.761L341.836,148.6L357.989,148.6L364.768,143.258L364.768,126.761Z" style="fill:white;fill-rule:nonzero;"/>
        <rect x="343.088" y="137.52" width="19.69" height="2.616" style="fill:rgb(46,107,137);fill-rule:nonzero;"/>
        <rect x="343.088" y="129.491" width="19.69" height="2.616" style="fill:rgb(46,107,137);fill-rule:nonzero;"/>
        <rect x="343.088" y="133.506" width="19.69" height="2.615" style="fill:rgb(46,107,137);fill-rule:nonzero;"/>
        <rect x="343.088" y="141.535" width="19.69" height="2.615" style="fill:rgb(46,107,137);fill-rule:nonzero;"/>
        <path d="M366.358,144.031L358.638,150.113L358.638,144.031L366.358,144.031Z" style="fill:rgb(86,197,204);fill-rule:nonzero;"/>
        <path d="M394.135,144.855L381.75,144.855L381.75,165.146L390.473,165.146L394.135,160.183L394.135,144.855Z" style="fill:rgb(34,189,190);fill-rule:nonzero;"/>
        <path d="M393.381,146.09L382.504,146.09L382.504,163.911L390.166,163.911L393.381,159.552L393.381,146.09Z" style="fill:white;fill-rule:nonzero;"/>
        <rect x="383.097" y="154.87" width="9.34" height="2.134" style="fill:rgb(46,107,137);fill-rule:nonzero;"/>
        <rect x="383.097" y="148.318" width="9.34" height="2.134" style="fill:rgb(46,107,137);fill-rule:nonzero;"/>
        <rect x="383.097" y="151.594" width="9.34" height="2.134" style="fill:rgb(46,107,137);fill-rule:nonzero;"/>
        <rect x="383.097" y="158.146" width="9.34" height="2.134" style="fill:rgb(46,107,137);fill-rule:nonzero;"/>
        <path d="M394.135,160.183L390.473,165.146L390.473,160.183L394.135,160.183Z" style="fill:rgb(86,197,204);fill-rule:nonzero;"/>
        <path d="M375.169,159.555L368.849,155.907L368.849,158.599L336.226,158.599L336.226,146.507C336.226,145.966 335.787,145.527 335.246,145.527C334.704,145.527 334.265,145.966 334.265,146.507L334.265,159.579C334.265,160.121 334.704,160.56 335.246,160.56L368.849,160.56L368.849,163.204L375.169,159.555Z" style="fill:rgb(238,52,75);fill-rule:nonzero;"/>
    </g>
</svg>
